<?xml version="1.0" encoding="utf-8"?>
<!-- Generator: Adobe Illustrator 15.0.0, SVG Export Plug-In . SVG Version: 6.00 Build 0)  -->
<!DOCTYPE svg PUBLIC "-//W3C//DTD SVG 1.1//EN" "http://www.w3.org/Graphics/SVG/1.1/DTD/svg11.dtd">
<svg version="1.1" id="Ebene_1" xmlns="http://www.w3.org/2000/svg" xmlns:xlink="http://www.w3.org/1999/xlink" x="0px" y="0px"
	 width="16px" height="16px" viewBox="0 0 16 16" enable-background="new 0 0 16 16" xml:space="preserve">
<g id="Edges">
</g>
<g id="Symbol">
	<g>
		<path fill="#000000" d="M2.761,0.421C2.234,0.626,1.789,0.899,1.343,1.345C0.897,1.787,0.625,2.236,0.419,2.759
			c-0.198,0.508-0.331,1.09-0.37,1.942C0.01,5.553,0,5.826,0,7.999c0,2.172,0.01,2.445,0.049,3.297
			c0.039,0.853,0.175,1.434,0.37,1.942c0.206,0.526,0.479,0.972,0.924,1.417c0.446,0.445,0.892,0.719,1.418,0.924
			c0.508,0.198,1.09,0.332,1.941,0.37c0.853,0.04,1.126,0.049,3.298,0.049c2.173,0,2.446-0.009,3.298-0.049
			c0.853-0.038,1.434-0.175,1.942-0.37c0.526-0.205,0.972-0.479,1.418-0.924c0.444-0.445,0.718-0.891,0.923-1.417
			c0.198-0.509,0.332-1.09,0.37-1.942C15.991,10.444,16,10.171,16,7.999c0-2.173-0.009-2.446-0.049-3.298
			c-0.038-0.853-0.175-1.435-0.37-1.942c-0.205-0.522-0.479-0.972-0.92-1.414c-0.445-0.445-0.892-0.719-1.418-0.924
			c-0.507-0.198-1.09-0.331-1.942-0.37c-0.852-0.04-1.125-0.049-3.298-0.049c-2.172,0-2.445,0.009-3.297,0.049
			C3.851,0.086,3.269,0.223,2.761,0.421z M11.232,1.488c0.781,0.035,1.204,0.165,1.487,0.276c0.374,0.146,0.641,0.318,0.92,0.599
			c0.279,0.279,0.452,0.546,0.599,0.92c0.11,0.283,0.24,0.706,0.276,1.486c0.038,0.842,0.046,1.096,0.046,3.232
			s-0.011,2.391-0.046,3.231c-0.036,0.781-0.166,1.204-0.276,1.487c-0.146,0.374-0.319,0.641-0.599,0.92
			c-0.279,0.28-0.546,0.452-0.92,0.599c-0.283,0.11-0.706,0.24-1.487,0.276c-0.842,0.039-1.095,0.046-3.232,0.046
			c-2.137,0-2.39-0.011-3.232-0.046c-0.78-0.036-1.203-0.166-1.486-0.276c-0.374-0.146-0.641-0.318-0.92-0.599
			c-0.28-0.279-0.452-0.546-0.599-0.92c-0.11-0.283-0.241-0.706-0.276-1.487C1.447,10.393,1.44,10.139,1.44,8.002
			S1.45,5.611,1.486,4.77c0.035-0.78,0.166-1.203,0.276-1.486c0.146-0.374,0.318-0.641,0.599-0.92
			c0.279-0.28,0.546-0.453,0.92-0.599c0.283-0.111,0.706-0.241,1.486-0.276C5.61,1.448,5.863,1.442,8,1.442
			C10.138,1.442,10.391,1.448,11.232,1.488z"/>
		<path fill="#000000" d="M3.893,8.002c0,2.27,1.841,4.106,4.107,4.106c2.268,0,4.107-1.84,4.107-4.106S10.271,3.895,8,3.895
			C5.73,3.895,3.893,5.731,3.893,8.002z M10.667,8.002c0,1.473-1.193,2.667-2.667,2.667c-1.473,0-2.666-1.194-2.666-2.667
			c0-1.474,1.193-2.667,2.666-2.667C9.474,5.335,10.667,6.528,10.667,8.002z"/>
		<circle fill="#000000" cx="12.273" cy="3.732" r="0.959"/>
	</g>
</g>
</svg>
