<?xml version="1.0" encoding="utf-8"?>
<!-- Generator: Adobe Illustrator 15.0.0, SVG Export Plug-In . SVG Version: 6.00 Build 0)  -->
<!DOCTYPE svg PUBLIC "-//W3C//DTD SVG 1.1//EN" "http://www.w3.org/Graphics/SVG/1.1/DTD/svg11.dtd">
<svg version="1.1" id="Layer_1" xmlns="http://www.w3.org/2000/svg" xmlns:xlink="http://www.w3.org/1999/xlink" x="0px" y="0px"
	 width="16px" height="16px" viewBox="0 0 16 16" enable-background="new 0 0 16 16" xml:space="preserve">
<path fill="#00FF00" d="M13.118,7.172c0-0.043,0.007-0.086,0.007-0.129c0-2.296-1.886-4.186-4.172-4.186
	c-1.646,0-3.064,0.996-3.728,2.393c-0.29-0.146-0.611-0.229-0.957-0.229c-1.057,0-1.932,0.847-2.104,1.857
	C0.907,7.314,0,8.457,0,9.871c0,1.779,1.432,3.271,3.2,3.271h9.871c1.607,0,2.929-1.389,2.929-3.011
	C16,8.504,14.735,7.175,13.118,7.172z"/>
</svg>
