<?xml version="1.0" encoding="utf-8"?>
<!-- Generator: Adobe Illustrator 15.0.0, SVG Export Plug-In . SVG Version: 6.00 Build 0)  -->
<!DOCTYPE svg PUBLIC "-//W3C//DTD SVG 1.1//EN" "http://www.w3.org/Graphics/SVG/1.1/DTD/svg11.dtd">
<svg version="1.1" id="Ebene_1" xmlns:serif="http://www.serif.com/"
	 xmlns="http://www.w3.org/2000/svg" xmlns:xlink="http://www.w3.org/1999/xlink" x="0px" y="0px" width="16px" height="16px"
	 viewBox="0 0 16 16" enable-background="new 0 0 16 16" xml:space="preserve">
<g transform="matrix(1,0,0,1,-138.462,-287.425)">
	<path fill="#00FF00" d="M152.093,301.062h-2.369v-3.715c0-0.885-0.016-2.025-1.234-2.025c-1.235,0-1.421,0.964-1.421,1.963v3.777
		h-2.372v-7.638h2.275v1.044h0.032c0.46-0.793,1.328-1.268,2.244-1.233c2.405,0,2.849,1.581,2.849,3.638L152.093,301.062z
		 M142.021,292.38L142.021,292.38c-0.754,0-1.376-0.622-1.376-1.376s0.622-1.376,1.376-1.376c0.755,0,1.376,0.622,1.376,1.376l0,0
		C143.397,291.758,142.775,292.38,142.021,292.38 M143.207,301.062h-2.373v-7.638h2.373V301.062z M153.275,287.425h-13.632
		c-0.642-0.006-1.174,0.514-1.182,1.154v13.691c0.008,0.643,0.541,1.163,1.182,1.154h13.632c0.642,0.009,1.178-0.508,1.187-1.154
		v-13.693C154.453,287.935,153.913,287.417,153.275,287.425"/>
</g>
</svg>
