<?xml version="1.0" encoding="utf-8"?>
<!-- Generator: Adobe Illustrator 15.0.0, SVG Export Plug-In . SVG Version: 6.00 Build 0)  -->
<!DOCTYPE svg PUBLIC "-//W3C//DTD SVG 1.1//EN" "http://www.w3.org/Graphics/SVG/1.1/DTD/svg11.dtd">
<svg version="1.1" id="Layer_1" xmlns="http://www.w3.org/2000/svg" xmlns:xlink="http://www.w3.org/1999/xlink" x="0px" y="0px"
	 width="24.889px" height="16px" viewBox="-4.444 0 24.889 16" enable-background="new -4.444 0 24.889 16" xml:space="preserve">
<path fill="#00FF00" d="M15.962,6.712c0-0.067,0.011-0.134,0.011-0.201C15.973,2.94,13.039,0,9.482,0
	c-2.56,0-4.766,1.549-5.799,3.722c-0.451-0.227-0.95-0.356-1.489-0.356c-1.645,0-3.006,1.318-3.273,2.889
	c-1.955,0.678-3.366,2.456-3.366,4.656c0,2.768,2.228,5.089,4.978,5.089h15.353c2.501,0,4.558-2.162,4.558-4.686
	C20.444,8.784,18.476,6.716,15.962,6.712z"/>
</svg>
