{"scene":0,"asset":{"generator":"ImageToStl.com","version":"2.0"},"scenes":[{"name":"Scene","nodes":[0]}],"nodes":[{"name":"Node0","children":[1]},{"name":"Node1","mesh":0,"NodeMesh":{"CalculatedWidth":20,"CalculatedHeight":6,"CalculatedDepth":20,"MaxDimension":20}}],"materials":[{"name":"diffuse_0","pbrMetallicRoughness":{"baseColorFactor":[0,0,0,1],"metallicFactor":1,"roughnessFactor":1},"doubleSided":true},{"name":"x1","pbrMetallicRoughness":{"baseColorFactor":[0.85,0.85,0.85,1],"metallicFactor":0.05,"roughnessFactor":0.5},"doubleSided":true}],"meshes":[{"name":"Mesh0","primitives":[{"material":1,"mode":0,"attributes":{"POSITION":0}}]}],"accessors":[{"bufferView":0,"componentType":5126,"count":38,"type":"VEC3","min":[-10,0,-10],"max":[10,6,10]}],"bufferViews":[{"buffer":0,"byteLength":456,"byteOffset":0}],"buffers":[{"byteLength":456,"uri":"data:application/octet-stream;base64,"}]}