<?xml version="1.0" encoding="UTF-8"?>
<!DOCTYPE svg PUBLIC "-//W3C//DTD SVG 1.1//EN" "http://www.w3.org/Graphics/SVG/1.1/DTD/svg11.dtd">
<svg version="1.1" id="Layer_1" xmlns="http://www.w3.org/2000/svg" xmlns:xlink="http://www.w3.org/1999/xlink" x="0px" y="0px" viewBox="0 0 826 826" enable-background="new 0 0 826 826" xml:space="preserve">
<g id="_x23_ffffffff">
</g>
<g>
	<path fill="#FFDE00" stroke="#FFDE00" stroke-width="0.0938" d="M377.07,39.18c5.97-1.21,12.12-0.49,18.15-1.36   c17.94-0.47,35.91-0.38,53.81,0.99c9.97,1.4,20,2.45,29.96,4.03c3.56,1.05,7.29,1.3,10.92,2.05c5.95,1.57,12.07,2.43,17.95,4.32   c23.11,5.56,45.4,14.09,66.98,23.98c61.7,29.1,115.3199,75.13,153.11,131.94c16.06,23.57,28.89,49.23,39.31,75.74   c2.52,7.42,5.44,14.71,7.56,22.25c0.63,2.05,1.26,4.1,1.86,6.16c3.3,11.1,6.06,22.38,8.14,33.78c1.01,3.91,1.43,7.93,2.04,11.92   c2.7,13.98,3.3,28.25,4.62,42.4c0.11,12.41,0.15,24.82-0.06,37.23c-1.19,9.08-1.16,18.3-2.67,27.36   c-0.74,8.08-2.26,16.07-3.55,24.08c-4.05,19.97-9.15,39.78-16.42,58.84c-32.1201,89.1-99.52,164.69-184.03,207.33   c-36.21,18.6-75.57,30.71-115.75,36.96c-8.34,0.8-16.64,2.17-25.01,2.59c-11.95,1.21-23.99,0.77-35.98,0.89   c-27.01,0.25-53.88-3.6299-80.21-9.41c-22.52-5.5-44.62-12.81-65.89-22.05c-12.32-5.49-24.28-11.72-36.12-18.16   c-0.16-0.25-0.48-0.73-0.64-0.97c-5.63-2.34-10.55-6-15.7-9.21c-64-41.06-115.03-101.91-144.26-172.11   c-0.81-1.89-1.57-3.78-2.38-5.66c-11.88-30.76-20.75-62.91-23.83-95.8c-1.74-6.93-0.99-14.13-2.26-21.1   c-0.61-14.04-0.36-28.11-0.21-42.16c0.94-7.05,0.88-14.18,1.74-21.25c0.6-6.94,1.86-13.81,2.59-20.74   c1.65-6.96,2.42-14.1,4.26-21.02c1.46-6.72,3.13-13.4,5.07-20.01c0.15-0.76,0.43-2.28,0.58-3.04c2.65-8.03,5.12-16.12,8-24.08   c6.31-17.12,13.88-33.75,22.45-49.85c1.81-3.39,3.82-6.66,5.63-10.04c2.56-4.72,5.65-9.11,8.33-13.76   c3.32-5.7,7.59-10.78,10.92-16.47c0.44-0.18,1.31-0.56,1.75-0.74c1.45-4.72,5.17-8.2,8.09-12.03   c40.3-51.95,94.48-92.95,155.33-117.82c1.62-0.67,3.26-1.31,4.91-1.94c7.83-3.05,15.74-5.89,23.76-8.41   C325.01,46.98,350.88,41.58,377.07,39.18 M384.04,59.73c-8.58,0.91-17.24,1.14-25.77,2.44c-4.68,0.63-7.41,5.37-6.78,9.83   c1.5,20.29,3.41,40.55,5.09,60.83c0.13,4.42,3.91,8.43,8.47,8.07c4.98,0.55,9.85-3.81,9.22-8.92c-0.44-7.83-1.41-15.62-1.88-23.45   c7.24-0.29,14.45-1.71,21.7-1.22c4.42,0.38,7.21,4.6,8.08,8.6c1.62,5.33,0.79,11.31,3.54,16.29c3.24,6.26,14.18,6.21,16.85-0.52   c0.9-3.73-1.18-7.27-2.04-10.8c-1.78-5.89-0.85-12.62-4.42-17.91c-2-3.09-5.75-4.09-9.17-4.59c2.16-0.85,4.34-1.82,6.04-3.46   c9.64-8.91,7.31-27.45-4.74-33.09C400.74,58.06,392.08,59.12,384.04,59.73 M484.75,75.41c-5.74,18.51-11.29,37.09-17.02,55.6   c-0.8,2.78-1.91,5.92-0.39,8.67c1.78,4.25,7.09,5.8,11.29,4.73c2.9-0.84,4.7-3.61,5.52-6.37c2.08-6.56,3.97-13.18,6.09-19.73   c6.86,1.99,13.66,4.24,20.55,6.16c5.1,1.39,10.6,1.64,15.7,0.13c15.85-4.38,22.91-27.48,11.34-39.49   c-7.28-7.61-18.16-9.2-27.69-12.44c-5.72-1.46-11.2-4.15-17.15-4.52C488.72,67.86,485.86,71.75,484.75,75.41 M290.8,79.83   c-3.08,2.4-2.55,6.71-2.84,10.16c-0.41,20.34-1.27,40.66-1.7,60.99c0.04,2.85-0.13,5.94,1.43,8.47c3.42,6.12,14.79,3.43,15.2-3.5   c0.53-4.84,0.21-9.72,0.39-14.57c9.01-3.2,18.03-6.38,27.15-9.26c2.82,3.69,5.6,7.42,8.65,10.93c4.38,5.05,13.96,1.49,14.54-5.04   c0.57-3.45-1.96-6.22-3.84-8.78c-13.2-16.45-26.44-32.85-39.62-49.31c-1.96-2.44-4.78-4.81-8.13-4.32   C298.08,76.24,294.1,77.51,290.8,79.83 M566.32,102.63c-9.98,2.36-18.24,9.48-23.67,18c-5.88,9.26-10.1801,20.36-8.41,31.49   c1.25,9.09,6.99,17.03,14.2,22.45c7.86,5.98,17.49,10.36,27.54,9.96c10.95-0.26,21.12-6.26,28.07-14.51   c7.45-8.84,12.64-20.27,11.81-32.03c-0.44-10.67-6.79-20.36-15.24-26.56C590.97,104.22,578.37,99.63,566.32,102.63 M234.69,105.81   c-11.36,7.63-22.76,15.18-34.15,22.77c-2.47,1.77-5.11,4.17-5.13,7.46c-0.2,3.39,1.96,6.22,3.67,8.93   c9.91,14.77,19.73,29.61,29.6,44.41c1.73,2.46,3.65,5.19,6.67,6.1c3.14,0.93,6.3-0.54,8.87-2.24   c11.37-7.68,22.82-15.23,34.23-22.85c2.33-1.64,4.95-3.46,5.73-6.37c0.47-3.17-1.63-6.3-4.29-7.85c-2.22-1.22-4.8-0.29-6.85,0.83   c-10.53,6.33-20.28,13.98-30.95,20.04c-3.87-4.79-6.94-10.19-10.41-15.27c8.88-6.17,18.17-11.78,26.87-18.19   c4.78-3.05,2.3-10.52-2.59-11.85c-2.83-0.71-5.36,1.14-7.64,2.52c-7,4.66-14.01,9.29-20.97,14.01c-1.06,0.68-2.12,1.4-3.36,1.71   c-3.38-4.32-6.24-9.04-9.15-13.7c8.83-5.98,17.74-11.83,26.61-17.75c2.11-1.49,4.35-2.95,5.85-5.09c2.24-3.35-0.15-7.69-3.12-9.67   C240.92,102.11,237.41,104.01,234.69,105.81 M631.32,144.38c-10.92,17.03-21.8,34.09-32.74,51.12c-1.94,3.02-4.13,6.72-2.66,10.39   c1.41,3.26,4.08,6,7.2,7.67c3.84,1.93,7.8-0.59,11.17-2.35c13.77-7.81,27.7-15.36,41.4-23.3c-8.85,13.73-18,27.26-26.87,40.98   c-1.88,2.85-3.66,6.33-2.36,9.8c1.3,3.08,3.7599,5.61,6.56,7.39c3.14,1.68,6.91,0.66,9.85-0.97c18.11-9.85,36.25-19.65,54.38-29.48   c2.4-1.31,4.84-3.04,5.87-5.69c1.74-5.13-2.72-11.38-8.16-11.24c-5.15,1.25-9.34,4.75-13.86,7.34   c-12.16,7.23-24.09,14.84-36.33,21.93c9.59-14.17,19.11-28.4,28.67-42.59c1.63-2.56,3.74-5.48,2.85-8.68   c-1.16-3.69-4.06-6.81-7.5099-8.5c-2.44-1.27-5.01,0.17-7.17,1.3c-15.51,8.88-30.98,17.84-46.5,26.69   c10.42-14.89,21.33-29.45,31.59-44.45c4.27-5.69-2.22-13.78-8.61-12.74C635.06,139.5,632.91,141.94,631.32,144.38 M140.58,187   c0.38,3.12,2.84,5.33,4.97,7.4c13.95,13.05,27.67,26.37,41.58,39.47c2.15,1.9,4.78,3.8,7.82,3.55c3.32-0.29,5.79-2.77,7.96-5.05   c8.48-9.02,17.2-17.83,25.48-27.04c2.8-3.09,2.87-8.49-0.74-10.99c-3.25-2.81-8.04-1.21-10.71,1.6   c-7.06,7.2-13.85,14.66-20.91,21.87c-12.44-11.84-24.92-23.63-37.32-35.51c-2.35-2.1-4.59-4.76-7.87-5.32   C145.35,176.24,140.03,181.51,140.58,187 M128.35,212.38c-10.44,2.95-18.5,11.41-23.01,21.03c-4.18,8.54-5.18,18.79-1.74,27.75   c3.77,10.41,12.31,18.45,21.97,23.48c9.18,5.06,20.26,7.89,30.56,4.86c10.46-3.1,18.22-11.79,23.11-21.21   c4.22-8.63,5.59-19.15,1.64-28.14c-1.82-3.62-4.61-7.36-8.74-8.39c-5.37-0.49-10.58,5.59-8.5,10.83c1.71,5.22,5.14,10.3,3.92,16.06   c-1.93,7.35-8.31,13.78-16.06,14.58c-7.06,0.63-14-2.01-19.93-5.64c-5.99-3.63-11.41-8.91-13.55-15.74   c-2.49-7.49,0.51-16.42,7.01-20.88c3.96-2.74,8.98-2.22,13.46-3.24c5.14-1.07,8.27-7.97,5.14-12.34   C140,210.91,133.45,210.98,128.35,212.38 M440.96,223.98c-5.45,10.26-12.58,20.24-22.92,25.99c-7.3,3.77-16.86,5.26-23.99,0.29   c-10.21-6.51-13.9-18.83-16.97-29.85c-1.5,15.49-7.2,31.95-20.21,41.47c-7.14,5.41-17.13,6.32-25.27,2.76   c-9.07-3.56-16.54-10.11-23.18-17.07c-2.36-2.28-4.49-4.81-6.11-7.67c0.55,6.72,2.21,13.31,2.36,20.06   c0.31,9.58,0.35,19.71-4.19,28.42c-2.95,5.5-8.6,8.97-14.41,10.76c-12.65,2.66-25.43-1.33-36.69-6.93   c4.58,11.51,9.13,23.34,9.76,35.85c-0.01,4.87-0.95,10.81-5.82,13.18c-11.46,6.45-25.09,4.24-37.64,4.16   c3.58,3.72,7.29,7.36,10.25,11.62c4.5,6.19,9.01,13.05,9.47,20.92c0.16,6.47-4.8,11.5-10.01,14.56   c-8.16,4.54-17.34,6.84-26.49,8.35c8.33,4.76,16.53,10.05,22.99,17.25c4.61,5.45,8.52,12.57,7.37,19.93   c-2.07,7.92-8.4,13.65-14.24,18.95c-14.27,12.17-30.53,21.74-47.03,30.53c13.34-0.19,26.66-1.5,40.02-0.9   c13.38,0.94,27.15,0.93,39.91,5.59c4.34,1.44,8.42,4.42,9.64,9.04c4.93,14.58,0.94,30.13-2.5,44.57c7.26-4.62,14.66-9.24,22.9-11.9   c6.08-2.14,13.01-3.61,19.21-1.11c6.11,2.58,9.41,9.06,10.6,15.28c2.08,10.5-0.19,21.16-2.79,31.35   c12.19-8.63,25.11-17.75,40.27-19.82c7.1-1.22,14.31,1.88,18.59,7.62c9.09,11.71,11.14,27,12.65,41.31   c6.62-11.24,14.28-22.38,25.1-29.99c5.65-4.08,13.26-5.65,19.83-2.88c11.72,4.72,19.54,15.37,25.89,25.82   c1.5-8.77,3.86-17.71,9.35-24.89c4.39-5.61,12.13-8.16,19-6.19c11.56,3.01,20.42,11.55,28.45,19.92   c0.97-10.31,3.46-20.95,10.11-29.17c4.89-6.27,12.71-10.23,20.73-9.83c9.54-0.51,18.39,3.52,27.06,6.91   c-0.62-5.13-2.46-10.07-2.44-15.28c-0.4-8.84,2.54-18.12,9.21-24.17c4.6899-4.89,11.33-7.23,17.93-8.06   c6.7599-1.12,13.49,0.5,20.19,1.26c-4.6801-5-8.89-10.99-9.62-17.98c-1.63-9.41,3.05-18.71,9.55-25.24   c5.46-5.55,13.04-8.39,20.64-9.45c-9.15-7.34-17.36-17.19-18.65-29.26c-1.27-12.05,5.78-23.14,14.28-31.03   c4.79-4.68,10.76-7.8,16.04-11.85c-11.83-1.79-23.69-4.55-34.49-9.83c-4.56-2.49-9.88-5.67-10.82-11.25   c-2.46-14.34,2.36-28.65,9.04-41.17c-11.26,2.91-24.76,5.51-34.79-2.09c-5.22-3.33-7.03-9.98-6.23-15.84   c1.37-13.54,8.39-25.54,14.79-37.26c-5.18,2.43-9.88,5.78-15.22,7.89c-8.9,3.54-18.71,6.27-28.29,4.01   c-7.31-1.39-13.05-7.22-15.9-13.89c-4.96-11.09-5.52-23.49-5.46-35.46c-7.8,8.91-16.75,17.2-27.57,22.28   c-5.02,2.42-10.92,2.88-16.31,1.63c-5.48-2.11-8.91-7.4-11.65-12.31c-5.06-10.05-7.53-21.15-9.21-32.2   C444.59,215.57,443.2,219.99,440.96,223.98 M700.74,224.79c-14.45,7.86-28.9,15.71-43.36,23.55c-3.55,2.01-7.53,3.57-10.31,6.65   c-2.54,2.79-2,7.06-0.3,10.13c6.51,12.13,13.15,24.19,19.67,36.31c1.45,2.46,2.77,5.3,5.38,6.74c3.49,1.5,7.87-0.56,9.51-3.86   c1.24-3.06-0.54-6.21-1.87-8.91c-5.44-9.97-10.8-19.99-16.23-29.97c5.49-3.02,10.98-6.06,16.53-8.99   c4.64,8.61,9.29,17.22,13.99,25.8c1.35,2.23,2.76,4.92,5.51,5.61c3.19,0.57,6.48-1.26,8.05-4.02c1.14-2.87-0.37-5.79-1.66-8.31   c-4.61-8.54-9.34-17.02-13.87-25.6c4.95-2.69,9.8199-5.52,14.89-7.97c5.17,9.62,10.41,19.21,15.6,28.82   c1.46,2.48,2.88,5.37,5.7,6.56c4.09,1.1,9.27-1.95,9.4-6.39c-0.35-3.49-2.31-6.52-3.89-9.56c-5.8-10.53-11.47-21.14-17.22-31.7   c-1.53-2.67-3.22-5.75-6.38-6.71C706.73,221.84,703.52,223.39,700.74,224.79 M83.26,280.97c-4.95,2.14-7.06,9.26-3.77,13.63   c1.61,2.33,4.48,3.11,7.04,3.93c12.52,3.73,25.02,7.54,37.54,11.3c3.33,1,6.73,2.37,9.09,5.04c3.35,3.44,3.67,8.74,2.59,13.19   c-1.25,5.12-3.67,10.64-8.75,12.96c-4.1,1.58-8.68,0.82-12.77-0.44c-12.26-3.73-24.56-7.36-36.81-11.16   c-2.67-0.78-5.58-1.66-8.31-0.64c-4.44,1.65-6.47,7.15-5.28,11.52c0.95,2.87,3.59,4.77,6.42,5.54   c13.33,4.08,26.68,8.07,40.03,12.07c8.21,2.48,17.76,2.35,25-2.71c8.65-5.95,12.74-16.35,14.9-26.24   c1.86-7.98,1.44-16.91-3.13-23.93c-4.14-6.47-11.29-10.2-18.44-12.43c-12.32-3.73-24.67-7.35-36.97-11.17   C88.95,280.65,85.97,279.77,83.26,280.97 M681.71,312.77c-2.41,0.64-4.9901,1.47-6.57,3.54c-4.12,5.23-0.17,14.89,6.92,14.36   c8.39-1.19,16.42-4.16,24.76-5.68c1.37,6.02,3.13,11.95,4.41,18c0.79,3.37,0.23,7.37-2.55,9.71c-5.62,5.11-14.12,4.35-19.99,8.97   c-5.5,4.39-3.69,14.84,3.37,16.48c3.81,0.27,6.92-2.49,10.34-3.78c5.48-2.67,12.21-2.85,16.84-7.17c2.77-2.47,3.14-6.39,3.15-9.87   c1.49,2.51,3.32,4.94,5.89,6.45c9.5099,5.87,23.5699,2.19,28.99-7.58c3.16-5.81,2.85-12.79,1.67-19.1   c-2.26-9.55-4.8-19.02-7.1-28.56c-0.88-3.42-1.75-7.36-4.94-9.39c-2.9901-1.81-6.67-0.99-9.85-0.28   C718.61,303.53,700.17,308.2,681.71,312.77 M61.39,364.55c-4.08,2.74-4.59,9.1-1.93,12.98c2.42,3.3,6.95,2.88,10.58,3.11   c14.11,0.79,28.25,1.26,42.36,2.09c-17.01,9.56-34.12,18.95-51.14,28.5c-6.04,2.87-7.05,11.03-4.32,16.53   c2.02,3.52,6.39,4.08,10.06,4.19c19.35,0.84,38.69,1.86,58.05,2.71c2.75,0.08,5.82,0.33,8.16-1.42c3-2.31,3.44-6.71,2.6-10.15   c-0.65-3.26-3.95-5.09-7.03-5.35c-15.27-0.87-30.57-1.37-45.84-2.29c16.89-9.62,33.82-19.18,50.67-28.88   c5.2-2.62,5.6-9.46,4.27-14.43c-1.24-4.2-5.97-5.78-9.93-5.85c-19.65-1.01-39.31-1.93-58.96-2.83   C66.44,363.46,63.66,363.14,61.39,364.55 M745.31,391.42c-3.74,1.82-4.63,7.36-2.36,10.64c3.27,3.86,9.47,4.2,11.86,8.99   c1.59,3.58,1.61,8.01-0.13,11.55c-2.23,4.75-9.09,5.86-13.14,2.83c-5.49-4.18-8.44-10.84-14.04-14.9   c-2.98-2.24-7.11-3.04-10.62-1.68c-4.09,1.7-4.78,7.39-2.62,10.8c2.8,2.78,7.34,3.01,9.78,6.27c4.35,5.29,7.81,11.63,13.87,15.22   c8.03,4.86,19.57,2.25,24.86-5.48c4.18-5.95,5.7-13.44,5.52-20.61c-0.39-8.88-4.85-18.1-12.89-22.41   C752.35,391.15,748.56,389.8,745.31,391.42 M694.19,407.07c-6.44,1.9-8.14,11.44-2.6,15.33c4.87,4.35,13.5699,0.95,14.21-5.55   C707.12,410.56,700.15,404.69,694.19,407.07 M648.36,571.48c-13.5,4.28-24.05,16.06-27.85,29.57c-1.99,6.88-0.63,14.79,4.24,20.16   c4.73,5.29,11.99,9.36,19.27,7.66c8.77-1.84,15.18-8.58,22.24-13.58c3.96-2.69,7.34-6.75,12.21-7.72c5.17-0.84,9.39,4.44,8.94,9.32   c-0.45,6.41-4.9,11.9-10.06,15.38c-4.55,3.07-10.2,2.11-15.35,2.56c-5.07,0.4-8.62,6.54-6.09,11.05c2.84,4.37,8.66,5.49,13.52,4.85   c9.32-1.13,17-7.44,22.89-14.36c5.89-7.13,11-15.84,10.55-25.4c-0.2-13.64-15.4-25.18-28.52-20.43   c-11.77,4.2401-19.23,15.42-30.42,20.63c-5,2.13-9.9-3.38-9.11-8.21c0.92-5.66,4.82-10.52,9.49-13.66   c3.99-2.75,8.99-2.59,13.58-3.26c5.33-0.85,8.4-8.44,4.57-12.48C658.79,569.89,652.98,569.92,648.36,571.48 M179.51,586.59   c-14.86,14.12-29.99,27.98-44.71,42.24c-5.63,5.18,0.4,14.45,7.1,14.21c2.33-0.22,4.27-1.65,5.95-3.15   c10.78-10.14,21.51-20.33,32.39-30.36c-4.57,18.03-9.2,36.05-13.88,54.05c-0.77,3.09-1.66,6.75,0.45,9.54   c2.18,3.1,5.19,6.41,9.23,6.64c4.21,0.36,7.39-2.92,10.24-5.52c14.45-13.84,29.28-27.28,43.62-41.22   c6.8-6.51-4.39-18.54-11.41-12.4c-11.93,10.57-23.17,21.93-35.03,32.57c4.75-18.83,10.06-37.53,14.93-56.33   c2.13-6.27-2.83-12.45-8.49-14.5C185.84,581.12,182.24,583.94,179.51,586.59 M123.35,589.33c-4.27,1.73-8.05,5.17-9.32,9.71   c-2.53,8.43,4.09,18.31,12.96,18.85c8.86,0.87,17.65-7.72,15.83-16.73C141.75,592.37,131.77,585.65,123.35,589.33 M602.31,618.81   c-1.12,14.33-1.39,28.73-2.57,43.07c-5.51-7.04-11.14-13.99-16.94-20.78c-3.33-3.97-9.82-3.17-12.85,0.7401   c-3.15,2.99-2.95,8.16-0.08,11.2599c12.73,15.89,25.77,31.52,38.52,47.4c1.73,2.14,3.77,4.35,6.63,4.87   c6.35,1.14,12.97-6.2,9.83-12.3c-3.44-5.86-8.77-10.38-12.41-16.09c0-4.54,0.96-9.01,1.23-13.54c12.49,3.8,24.8,8.21,37.32,11.88   c6.74,2.16,14.34-6.53,10.23-12.74c-1.34-2.58-4.24-3.51-6.8-4.34c-11.85-3.73-23.68-7.5-35.54-11.19   c-1.03-0.51-2.53-0.54-3.04-1.69c0.47-9.16,1.6299-18.29,1.9-27.46c0.19-2.4901-1.13-5-3.3-6.22   C609.47,608.74,602.31,613.08,602.31,618.81 M240.19,641.05c-10.77,1.35-20.15,8.25-26.2,17.04   c-6.25,9.0099-10.86,19.86-9.83,31.03c0.65,8.81,5.52,16.85,12.13,22.53c8.18,7.14,18.7,12.39,29.78,11.97   c11.46-0.31,22.04-6.83,29.05-15.64c7.17-8.92,12.15-20.32,10.94-31.96c-0.97-10.59-7.52-20.03-16.05-26.09   C261.47,643.79,250.84,639.6,240.19,641.05 M550.98,661.75c6.55,14.66,13.95,28.94,20.74,43.51   c-14.7599-9.18-29.34-18.65-44.04-27.93c-2.67-1.64-5.17-3.61-8.08-4.78c-4.89-1.54-10.18,1.02-13.35,4.73   c-2.36,2.71-1.77,6.61-0.33,9.6c8.63,18.09,17.43,36.1,26.07,54.18c1.37,2.72,2.84,6.03,6.06,6.91   c5.89,1.55,13.85-4.3199,10.93-10.79c-6.37-14.2-13.53-28.05-20.12-42.15c16.51,10.12,32.88,20.49,49.39,30.6299   c2.02,1.17,4.41,2.22,6.78,1.44c4.2-1.17,8.99-3.5099,10.06-8.15c0.7599-4.19-1.69-7.99-3.31-11.66   c-8.19-16.87-16.3-33.78-24.45-50.67c-1.23-2.66-3.29-5.25-6.37-5.67C555.43,650.42,548.4,655.63,550.98,661.75 M313.24,687.69   c1.48,2.8,4.68,3.96,7.59,4.68c5.07,1.18,10.15,2.37,15.22,3.61c-4.05,18.4-8.89,36.64-12.86,55.05c-1.3,5.36,3.61,10.22,8.87,9.91   c4.31,0.51,7.86-3.08,8.58-7.1c4.3-17.88,8.51-35.79,12.82-53.67c6.21,1.23,12.27,3.23,18.56,4.14c3.93,0.59,8.34-2.1,8.59-6.29   c0.8-4.47-3.53-7.78-7.45-8.57c-15.04-3.67-30.13-7.13-45.18-10.79c-3.25-0.75-6.59-1.86-9.96-1.22   C313.57,678.14,310.92,683.81,313.24,687.69 M470.87,683.84c-2.7,1-4.28,3.71-4.56,6.48c-2.91,21.22-5.74,42.45-8.59,63.68   c-0.3,3.43-1.05,7.27,0.95,10.36c3.72,5.74,14.6,3.36,15.18-3.58c0.68-4.6,1.04-9.23,1.73-13.83c9.28-1.98,18.49-4.29,27.76-6.36   c2.66,4,4.93,8.28,7.86,12.12c3.93,5.25,13.52,2.57,14.76-3.71c0.83-3.33-1.2401-6.38-2.86-9.09   c-11.38-17.64-22.78-35.2599-34.15-52.91c-1.58-2.5-3.7-5.18-6.9-5.41C478.23,681.49,474.41,682.46,470.87,683.84 M431.97,694.04   c-1.33,2.4-1.32,5.22-1.31,7.89c0.11,6.42,0.15,12.84,0.13,19.26c-10.72,0.04-21.45,0.17-32.17,0.19   c-0.14-6.82-0.08-13.64-0.16-20.45c-0.07-2.35-0.13-4.88-1.53-6.86c-3.48-5.4-13.14-4.66-15.52,1.4   c-1.17,4.0601-0.68,8.34-0.73,12.51c0.12,18.36,0.27,36.73,0.61,55.1c-0.22,5.87,6.39,9.71,11.64,7.78   c3.53-0.86,5.99-4.31,5.89-7.91c0.08-8.86-0.1-17.73-0.14-26.59c10.8-0.11,21.59-0.19,32.39-0.2c0.1,8.29,0.09,16.58,0.19,24.86   c0.01,2.59,0.35,5.46,2.28,7.39c3.31,3.1,8.93,3.21,12.51,0.51c2.4-1.84,2.91-5.05,2.86-7.88c-0.12-20.04-0.32-40.08-0.41-60.11   c-0.11-2.36,0.03-4.92-1.32-6.97C443.98,688.72,435.1,688.78,431.97,694.04z"/>
	<path fill="#FFDE00" stroke="#FFDE00" stroke-width="0.0938" d="M369.48,74.66c7.19-0.46,14.36-1.45,21.57-1.52   c3.5-0.08,7.58,1.06,9.12,4.54c1.69,3.94,2.09,9.09-0.94,12.5c-2.88,3.06-7.31,3.68-11.28,4.04c-5.56,0.37-11.09,0.97-16.64,1.42   C370.53,88.67,370.09,81.66,369.48,74.66z"/>
	<path fill="#FFDE00" stroke="#FFDE00" stroke-width="0.0938" d="M494.27,105.21c1.96-7.08,4.31-14.05,6.35-21.11   c7.32,2.68,15.65,3.44,21.95,8.34c6.64,5.57,2,18.08-6.63,18.15C508.4,110.7,501.5,106.92,494.27,105.21z"/>
	<path fill="#FFDE00" stroke="#FFDE00" stroke-width="0.0938" d="M302.65,95.22c6.01,7.67,11.67,15.62,17.64,23.32   c0.5,1.01,1.9,1.93,1.5,3.18c-6.23,2.41-12.56,4.6-18.97,6.47C302.77,117.2,302.55,106.21,302.65,95.22z"/>
	<path fill="#FFDE00" stroke="#FFDE00" stroke-width="0.0938" d="M573.44,117.62c9.63-1.95,20.02,3.89,24.11,12.66   c3.52,8.85-0.14,18.64-5.28,26.05c-4.04,5.87-9.58,11.42-16.8,12.89c-7.8799,1.3-15.7599-2.98-20.8199-8.78   c-5.1801-6.22-4.41-15.1-1.32-22.09C557.2,129.43,563.47,120.17,573.44,117.62z"/>
	<path fill="#FFDE00" stroke="#FFDE00" stroke-width="0.0938" d="M719.39,321.66c6.74-1.7,13.49-3.37,20.22-5.11   c1.71,5.92,3.11,11.92,4.61,17.9c0.6801,3.62,1.5,7.86-0.72,11.12c-2.82,3.53-7.86,4.73-12.15,3.87   c-4.14-1.27-6.3199-5.54-7.36-9.45C722.38,333.9,720.86,327.79,719.39,321.66z"/>
	<path fill="#FFDE00" stroke="#FFDE00" stroke-width="0.0938" d="M125.24,593.35c5.31-2.49,12.29,0.83,13.6,6.57   c2.5,8.47-7.95,16.69-15.73,12.92c-5.22-2.29-7.43-9.33-4.37-14.16C120.23,596.25,122.59,594.39,125.24,593.35 M120.44,601.56   c-1.11,0.63-0.84,2.05-1.15,3.09c2.75,0.2,5.04-1.46,7.34-2.6801c-0.98,3.3101-3.06,6.57-2.07,10.16c2.85-0.3,3.31-3.15,4.18-5.32   c2.79,1.71,5.62,0.35,7.91-1.45c0.21-4.15-2.2-8.73-5.63-10.78C127.34,596.65,123.84,599.06,120.44,601.56z"/>
	<path fill="#FFDE00" stroke="#FFDE00" stroke-width="0.0938" d="M128.28,600.35c1.03-0.63,2.05-1.2599,3.08-1.88   c0.79,1.55,1.59,3.09,2.38,4.65c-0.72,0.25-2.17,0.73-2.9,0.98C129.99,602.84,129.13,601.59,128.28,600.35z"/>
	<path fill="#FFDE00" stroke="#FFDE00" stroke-width="0.0938" d="M244.48,656.59c11.86-1.8701,25.08,7.95,24.88,20.39   c-0.3,8.76-5.05,16.65-10.66,23.11c-4.63,5.18-11.44,9.3799-18.65,8.21c-7.1-1.23-13.89-5.62-17.3-12.06   c-3.26-6.41-1.62-13.97,1.29-20.18C228.14,667.47,234.64,658.7,244.48,656.59z"/>
	<path fill="#FFDE00" stroke="#FFDE00" stroke-width="0.0938" d="M479.75,701.18c5.84,9.29,11.26,18.83,16.96,28.19   c-6.7,1.7-13.44,3.3-20.23,4.63C477.69,723.07,478.51,712.11,479.75,701.18z"/>
	<path fill="#000000" stroke="#000000" stroke-width="0.0938" d="M384.04,59.73c8.04-0.61,16.7-1.67,24.19,2.1   c12.05,5.64,14.38,24.18,4.74,33.09c-1.7,1.64-3.88,2.61-6.04,3.46c3.42,0.5,7.17,1.5,9.17,4.59c3.57,5.29,2.64,12.02,4.42,17.91   c0.86,3.53,2.94,7.07,2.04,10.8c-2.67,6.73-13.61,6.78-16.85,0.52c-2.75-4.98-1.92-10.96-3.54-16.29c-0.87-4-3.66-8.22-8.08-8.6   c-7.25-0.49-14.46,0.93-21.7,1.22c0.47,7.83,1.44,15.62,1.88,23.45c0.63,5.11-4.24,9.47-9.22,8.92c-4.56,0.36-8.34-3.65-8.47-8.07   c-1.68-20.28-3.59-40.54-5.09-60.83c-0.63-4.46,2.1-9.2,6.78-9.83C366.8,60.87,375.46,60.64,384.04,59.73 M369.48,74.66   c0.61,7,1.05,14.01,1.83,20.98c5.55-0.45,11.08-1.05,16.64-1.42c3.97-0.36,8.4-0.98,11.28-4.04c3.03-3.41,2.63-8.56,0.94-12.5   c-1.54-3.48-5.62-4.62-9.12-4.54C383.84,73.21,376.67,74.2,369.48,74.66z"/>
	<path fill="#000000" stroke="#000000" stroke-width="0.0938" d="M484.75,75.41c1.11-3.66,3.97-7.55,8.24-7.26   c5.95,0.37,11.43,3.06,17.15,4.52c9.53,3.24,20.41,4.83,27.69,12.44c11.57,12.01,4.51,35.11-11.34,39.49   c-5.1,1.51-10.6,1.26-15.7-0.13c-6.89-1.92-13.69-4.17-20.55-6.16c-2.12,6.55-4.01,13.17-6.09,19.73   c-0.82,2.76-2.62,5.53-5.52,6.37c-4.2,1.07-9.51-0.48-11.29-4.73c-1.52-2.75-0.41-5.89,0.39-8.67   C473.46,112.5,479.01,93.92,484.75,75.41 M494.27,105.21c7.23,1.71,14.13,5.49,21.67,5.38c8.63-0.07,13.27-12.58,6.63-18.15   c-6.3-4.9-14.63-5.66-21.95-8.34C498.58,91.16,496.23,98.13,494.27,105.21z"/>
	<path fill="#000000" stroke="#000000" stroke-width="0.0938" d="M290.8,79.83c3.3-2.32,7.28-3.59,11.23-4.23   c3.35-0.49,6.17,1.88,8.13,4.32c13.18,16.46,26.42,32.86,39.62,49.31c1.88,2.56,4.41,5.33,3.84,8.78   c-0.58,6.53-10.16,10.09-14.54,5.04c-3.05-3.51-5.83-7.24-8.65-10.93c-9.12,2.88-18.14,6.06-27.15,9.26   c-0.18,4.85,0.14,9.73-0.39,14.57c-0.41,6.93-11.78,9.62-15.2,3.5c-1.56-2.53-1.39-5.62-1.43-8.47c0.43-20.33,1.29-40.65,1.7-60.99   C288.25,86.54,287.72,82.23,290.8,79.83 M302.65,95.22c-0.1,10.99,0.12,21.98,0.17,32.97c6.41-1.87,12.74-4.06,18.97-6.47   c0.4-1.25-1-2.17-1.5-3.18C314.32,110.84,308.66,102.89,302.65,95.22z"/>
	<path fill="#000000" stroke="#000000" stroke-width="0.0938" d="M566.32,102.63c12.05-3,24.65,1.59,34.3,8.8   c8.45,6.2,14.8,15.89,15.24,26.56c0.83,11.76-4.36,23.19-11.81,32.03c-6.95,8.25-17.12,14.25-28.07,14.51   c-10.05,0.4-19.68-3.98-27.54-9.96c-7.21-5.42-12.95-13.36-14.2-22.45c-1.77-11.13,2.53-22.23,8.41-31.49   C548.08,112.11,556.34,104.99,566.32,102.63 M573.44,117.62c-9.97,2.55-16.24,11.81-20.11,20.73c-3.09,6.99-3.86,15.87,1.32,22.09   c5.06,5.8,12.94,10.08,20.8199,8.78c7.22-1.47,12.76-7.02,16.8-12.89c5.14-7.41,8.8-17.2,5.28-26.05   C593.46,121.51,583.07,115.67,573.44,117.62z"/>
	<path fill="#000000" stroke="#000000" stroke-width="0.0938" d="M234.69,105.81c2.72-1.8,6.23-3.7,9.49-2.05   c2.97,1.98,5.36,6.32,3.12,9.67c-1.5,2.14-3.74,3.6-5.85,5.09c-8.87,5.92-17.78,11.77-26.61,17.75c2.91,4.66,5.77,9.38,9.15,13.7   c1.24-0.31,2.3-1.03,3.36-1.71c6.96-4.72,13.97-9.35,20.97-14.01c2.28-1.38,4.81-3.23,7.64-2.52c4.89,1.33,7.37,8.8,2.59,11.85   c-8.7,6.41-17.99,12.02-26.87,18.19c3.47,5.08,6.54,10.48,10.41,15.27c10.67-6.06,20.42-13.71,30.95-20.04   c2.05-1.12,4.63-2.05,6.85-0.83c2.66,1.55,4.76,4.68,4.29,7.85c-0.78,2.91-3.4,4.73-5.73,6.37c-11.41,7.62-22.86,15.17-34.23,22.85   c-2.57,1.7-5.73,3.17-8.87,2.24c-3.02-0.91-4.94-3.64-6.67-6.1c-9.87-14.8-19.69-29.64-29.6-44.41c-1.71-2.71-3.87-5.54-3.67-8.93   c0.02-3.29,2.66-5.69,5.13-7.46C211.93,120.99,223.33,113.44,234.69,105.81z"/>
	<path fill="#000000" stroke="#000000" stroke-width="0.0938" d="M631.32,144.38c1.59-2.44,3.74-4.88,6.77-5.38   c6.39-1.04,12.8799,7.05,8.61,12.74c-10.26,15-21.17,29.56-31.59,44.45c15.52-8.85,30.99-17.81,46.5-26.69   c2.16-1.13,4.73-2.57,7.17-1.3c3.45,1.69,6.35,4.81,7.5099,8.5c0.89,3.2-1.22,6.12-2.85,8.68c-9.56,14.19-19.08,28.42-28.67,42.59   c12.24-7.09,24.17-14.7,36.33-21.93c4.52-2.59,8.71-6.09,13.86-7.34c5.44-0.14,9.9,6.11,8.16,11.24c-1.03,2.65-3.47,4.38-5.87,5.69   c-18.13,9.83-36.27,19.63-54.38,29.48c-2.94,1.63-6.71,2.65-9.85,0.97c-2.8-1.78-5.26-4.31-6.56-7.39c-1.3-3.47,0.48-6.95,2.36-9.8   c8.87-13.72,18.02-27.25,26.87-40.98c-13.7,7.94-27.63,15.49-41.4,23.3c-3.37,1.76-7.33,4.28-11.17,2.35   c-3.12-1.67-5.79-4.41-7.2-7.67c-1.47-3.67,0.72-7.37,2.66-10.39C609.52,178.47,620.4,161.41,631.32,144.38z"/>
	<path fill="#000000" stroke="#000000" stroke-width="0.0938" d="M140.58,187c-0.55-5.49,4.77-10.76,10.26-10.02   c3.28,0.56,5.52,3.22,7.87,5.32c12.4,11.88,24.88,23.67,37.32,35.51c7.06-7.21,13.85-14.67,20.91-21.87   c2.67-2.81,7.46-4.41,10.71-1.6c3.61,2.5,3.54,7.9,0.74,10.99c-8.28,9.21-17,18.02-25.48,27.04c-2.17,2.28-4.64,4.76-7.96,5.05   c-3.04,0.25-5.67-1.65-7.82-3.55c-13.91-13.1-27.63-26.42-41.58-39.47C143.42,192.33,140.96,190.12,140.58,187z"/>
	<path fill="#000000" stroke="#000000" stroke-width="0.0938" d="M128.35,212.38c5.1-1.4,11.65-1.47,15.28,3.01   c3.13,4.37,0,11.27-5.14,12.34c-4.48,1.02-9.5,0.5-13.46,3.24c-6.5,4.46-9.5,13.39-7.01,20.88c2.14,6.83,7.56,12.11,13.55,15.74   c5.93,3.63,12.87,6.27,19.93,5.64c7.75-0.8,14.13-7.23,16.06-14.58c1.22-5.76-2.21-10.84-3.92-16.06   c-2.08-5.24,3.13-11.32,8.5-10.83c4.13,1.03,6.92,4.77,8.74,8.39c3.95,8.99,2.58,19.51-1.64,28.14   c-4.89,9.42-12.65,18.11-23.11,21.21c-10.3,3.03-21.38,0.2-30.56-4.86c-9.66-5.03-18.2-13.07-21.97-23.48   c-3.44-8.96-2.44-19.21,1.74-27.75C109.85,223.79,117.91,215.33,128.35,212.38z"/>
	<path fill="#000000" stroke="#000000" stroke-width="0.0938" d="M700.74,224.79c2.78-1.4,5.99-2.95,9.14-1.82   c3.16,0.96,4.85,4.04,6.38,6.71c5.75,10.56,11.42,21.17,17.22,31.7c1.58,3.04,3.54,6.07,3.89,9.56c-0.13,4.44-5.31,7.49-9.4,6.39   c-2.8199-1.19-4.24-4.08-5.7-6.56c-5.19-9.61-10.43-19.2-15.6-28.82c-5.07,2.45-9.94,5.28-14.89,7.97   c4.53,8.58,9.2599,17.06,13.87,25.6c1.29,2.52,2.8,5.44,1.66,8.31c-1.57,2.76-4.86,4.59-8.05,4.02c-2.75-0.69-4.16-3.38-5.51-5.61   c-4.7-8.58-9.35-17.19-13.99-25.8c-5.55,2.93-11.04,5.97-16.53,8.99c5.43,9.98,10.79,20,16.23,29.97c1.33,2.7,3.11,5.85,1.87,8.91   c-1.64,3.3-6.02,5.36-9.51,3.86c-2.61-1.44-3.93-4.28-5.38-6.74c-6.52-12.12-13.16-24.18-19.67-36.31   c-1.7-3.07-2.24-7.34,0.3-10.13c2.78-3.08,6.76-4.64,10.31-6.65C671.84,240.5,686.29,232.65,700.74,224.79z"/>
	<path fill="#000000" stroke="#000000" stroke-width="0.0938" d="M83.26,280.97c2.71-1.2,5.69-0.32,8.38,0.46   c12.3,3.82,24.65,7.44,36.97,11.17c7.15,2.23,14.3,5.96,18.44,12.43c4.57,7.02,4.99,15.95,3.13,23.93   c-2.16,9.89-6.25,20.29-14.9,26.24c-7.24,5.06-16.79,5.19-25,2.71c-13.35-4-26.7-7.99-40.03-12.07c-2.83-0.77-5.47-2.67-6.42-5.54   c-1.19-4.37,0.84-9.87,5.28-11.52c2.73-1.02,5.64-0.14,8.31,0.64c12.25,3.8,24.55,7.43,36.81,11.16c4.09,1.26,8.67,2.02,12.77,0.44   c5.08-2.32,7.5-7.84,8.75-12.96c1.08-4.45,0.76-9.75-2.59-13.19c-2.36-2.67-5.76-4.04-9.09-5.04c-12.52-3.76-25.02-7.57-37.54-11.3   c-2.56-0.82-5.43-1.6-7.04-3.93C76.2,290.23,78.31,283.11,83.26,280.97z"/>
	<path fill="#000000" stroke="#000000" stroke-width="0.0938" d="M681.71,312.77c18.46-4.57,36.9-9.24,55.34-13.9   c3.18-0.71,6.86-1.53,9.85,0.28c3.19,2.03,4.06,5.97,4.94,9.39c2.3,9.54,4.84,19.01,7.1,28.56c1.18,6.31,1.49,13.29-1.67,19.1   c-5.42,9.77-19.48,13.45-28.99,7.58c-2.57-1.51-4.4-3.94-5.89-6.45c-0.01,3.48-0.38,7.4-3.15,9.87c-4.63,4.32-11.36,4.5-16.84,7.17   c-3.42,1.29-6.53,4.05-10.34,3.78c-7.06-1.64-8.87-12.09-3.37-16.48c5.87-4.62,14.37-3.86,19.99-8.97   c2.78-2.34,3.34-6.34,2.55-9.71c-1.28-6.05-3.04-11.98-4.41-18c-8.34,1.52-16.37,4.49-24.76,5.68c-7.09,0.53-11.04-9.13-6.92-14.36   C676.72,314.24,679.3,313.41,681.71,312.77 M719.39,321.66c1.47,6.13,2.99,12.24,4.6,18.33c1.04,3.91,3.22,8.18,7.36,9.45   c4.29,0.86,9.33-0.34,12.15-3.87c2.22-3.26,1.4-7.5,0.72-11.12c-1.5-5.98-2.9-11.98-4.61-17.9   C732.88,318.29,726.13,319.96,719.39,321.66z"/>
	<path fill="#000000" stroke="#000000" stroke-width="0.0938" d="M302.56,361.6c11.86-9.69,26.84-16.62,42.4-16.08   c11.81-0.27,23.33,5.75,30.68,14.86c3.8,5.45,7.64,12.12,5.81,18.99c-5.16,4.58-13.15,0.27-15.36-5.38   c-2.79-6.49-7.96-11.88-14.36-14.86c-8.88-3.66-18.8-2.57-27.84-0.09c-6.68,1.94-12.77,5.53-18.33,9.66   c-4.48,3.79-8.09,8.55-12.87,12c-1.24,1.01-2.92,0.85-4.4,1.11C291.53,374.18,295.95,366.78,302.56,361.6z"/>
	<path fill="#000000" stroke="#000000" stroke-width="0.0938" d="M450.06,384.08c11.14-16.03,30.02-27.28,49.88-26.52   c7.44,0.54,15.24,0.66,22.05,4.1c7.03,3.26,12.86,8.57,17.84,14.42c3.63,4.86,4,11.28,3.74,17.13c-3.41,6.99-14.01,2.55-15.41-3.74   c-4.34-14.75-19.85-25.23-35.16-23.59c-5.89,0.84-11.77,2.33-17.06,5.09c-6.45,3.22-13.12,6.55-17.95,12.06   c-2.31,2.64-4.93,5.25-8.59,5.73C449.49,387.2,449.1,385.45,450.06,384.08z"/>
	<path fill="#000000" stroke="#000000" stroke-width="0.0938" d="M61.39,364.55c2.27-1.41,5.05-1.09,7.6-1.09   c19.65,0.9,39.31,1.82,58.96,2.83c3.96,0.07,8.69,1.65,9.93,5.85c1.33,4.97,0.93,11.81-4.27,14.43   c-16.85,9.7-33.78,19.26-50.67,28.88c15.27,0.92,30.57,1.42,45.84,2.29c3.08,0.26,6.38,2.09,7.03,5.35   c0.84,3.44,0.4,7.84-2.6,10.15c-2.34,1.75-5.41,1.5-8.16,1.42c-19.36-0.85-38.7-1.87-58.05-2.71c-3.67-0.11-8.04-0.67-10.06-4.19   c-2.73-5.5-1.72-13.66,4.32-16.53c17.02-9.55,34.13-18.94,51.14-28.5c-14.11-0.83-28.25-1.3-42.36-2.09   c-3.63-0.23-8.16,0.19-10.58-3.11C56.8,373.65,57.31,367.29,61.39,364.55z"/>
	<path fill="#000000" stroke="#000000" stroke-width="0.0938" d="M423.49,364.33c0.96,0.02,1.93,0.04,2.91,0.06   c1.52,6.09,1.6,12.4,2.74,18.56c2.75,18.38,10.12,35.71,18.85,52c1.56,2.53,2.08,5.47,1.49,8.4c-2.82-0.05-6.02,0.57-8.37-1.4   c-6.53-4.69-9.63-12.47-12.38-19.71c-5.6-16.09-8.1-33.28-7.33-50.29C421.34,369.24,422.31,366.71,423.49,364.33z"/>
	<path fill="#000000" stroke="#000000" stroke-width="0.0938" d="M745.31,391.42c3.25-1.62,7.04-0.27,10.09,1.22   c8.04,4.31,12.5,13.53,12.89,22.41c0.18,7.17-1.34,14.66-5.52,20.61c-5.29,7.73-16.83,10.34-24.86,5.48   c-6.06-3.59-9.52-9.93-13.87-15.22c-2.44-3.26-6.98-3.49-9.78-6.27c-2.16-3.41-1.47-9.1,2.62-10.8c3.51-1.36,7.64-0.56,10.62,1.68   c5.6,4.06,8.55,10.72,14.04,14.9c4.05,3.03,10.91,1.92,13.14-2.83c1.74-3.54,1.72-7.97,0.13-11.55c-2.39-4.79-8.59-5.13-11.86-8.99   C740.68,398.78,741.57,393.24,745.31,391.42z"/>
	<path fill="#000000" stroke="#000000" stroke-width="0.0938" d="M694.19,407.07c5.96-2.38,12.93,3.49,11.61,9.78   c-0.64,6.5-9.34,9.9-14.21,5.55C686.05,418.51,687.75,408.97,694.19,407.07z"/>
	<path fill="#000000" stroke="#000000" stroke-width="0.0938" d="M322.02,457.57c2.89-2.42,5.64-5.02,8.72-7.2   c12.67,14.77,29.2,25.8,46.57,34.3c11.96,5.48,24.67,9.36,37.69,11.28c8.94,0.92,17.97,2.19,26.94,0.94   c21.08-1.3,42.48-6.27,60.48-17.68c7.59-5.25,14.68-11.58,19.25-19.71c0.73-1.95,2.55-2.4,4.5-2.44   c-1.16,7.31-5.75,13.49-10.19,19.19c-16.52,20.29-42.44,30.25-67.66,34.13c-17.18,3.13-34.91-0.24-50.99-6.53   c-25-10.11-46.49-27.17-65.34-46.17C328.66,457.71,325.34,457.65,322.02,457.57z"/>
	<path fill="#000000" stroke="#000000" stroke-width="0.0938" d="M648.36,571.48c4.62-1.56,10.43-1.59,14.1,2.08   c3.83,4.04,0.7599,11.63-4.57,12.48c-4.59,0.67-9.59,0.51-13.58,3.26c-4.67,3.14-8.57,8-9.49,13.66   c-0.79,4.83,4.11,10.34,9.11,8.21c11.19-5.21,18.65-16.39,30.42-20.63c13.12-4.75,28.32,6.79,28.52,20.43   c0.45,9.5601-4.66,18.27-10.55,25.4c-5.89,6.92-13.57,13.23-22.89,14.36c-4.86,0.64-10.68-0.48-13.52-4.85   c-2.53-4.51,1.02-10.65,6.09-11.05c5.15-0.45,10.8,0.51,15.35-2.56c5.16-3.48,9.61-8.97,10.06-15.38   c0.45-4.88-3.77-10.16-8.94-9.32c-4.87,0.97-8.25,5.03-12.21,7.72c-7.06,5-13.47,11.7401-22.24,13.58   c-7.28,1.7-14.54-2.37-19.27-7.66c-4.87-5.37-6.23-13.28-4.24-20.16C624.31,587.54,634.86,575.76,648.36,571.48z"/>
	<path fill="#000000" stroke="#000000" stroke-width="0.0938" d="M179.51,586.59c2.73-2.65,6.33-5.47,10.39-4.23   c5.66,2.05,10.62,8.23,8.49,14.5c-4.87,18.8-10.18,37.5-14.93,56.33c11.86-10.64,23.1-22,35.03-32.57   c7.02-6.14,18.21,5.89,11.41,12.4c-14.34,13.94-29.17,27.38-43.62,41.22c-2.85,2.6-6.03,5.88-10.24,5.52   c-4.04-0.23-7.05-3.54-9.23-6.64c-2.11-2.79-1.22-6.45-0.45-9.54c4.68-18,9.31-36.02,13.88-54.05   c-10.88,10.03-21.61,20.22-32.39,30.36c-1.68,1.5-3.62,2.93-5.95,3.15c-6.7,0.2401-12.73-9.03-7.1-14.21   C149.52,614.57,164.65,600.71,179.51,586.59z"/>
	<path fill="#000000" stroke="#000000" stroke-width="0.0938" d="M123.35,589.33c8.42-3.68,18.4,3.04,19.47,11.83   c1.82,9.01-6.97,17.6-15.83,16.73c-8.87-0.54-15.49-10.42-12.96-18.85C115.3,594.5,119.08,591.06,123.35,589.33 M125.24,593.35   c-2.65,1.04-5.01,2.9-6.5,5.33c-3.06,4.83-0.85,11.87,4.37,14.16c7.78,3.77,18.23-4.45,15.73-12.92   C137.53,594.18,130.55,590.86,125.24,593.35z"/>
	<path fill="#000000" stroke="#000000" stroke-width="0.0938" d="M120.44,601.56c3.4-2.5,6.9-4.91,10.58-6.98   c3.43,2.05,5.84,6.63,5.63,10.78c-2.29,1.8-5.12,3.16-7.91,1.45c-0.87,2.17-1.33,5.02-4.18,5.32c-0.99-3.59,1.09-6.85,2.07-10.16   c-2.3,1.22-4.59,2.88-7.34,2.6801C119.6,603.61,119.33,602.19,120.44,601.56 M128.28,600.35c0.85,1.2401,1.71,2.4901,2.56,3.75   c0.73-0.25,2.18-0.73,2.9-0.98c-0.79-1.56-1.59-3.1-2.38-4.65C130.33,599.09,129.31,599.72,128.28,600.35z"/>
	<path fill="#000000" stroke="#000000" stroke-width="0.0938" d="M602.31,618.81c0-5.73,7.16-10.07,12.13-7.13   c2.17,1.22,3.49,3.73,3.3,6.22c-0.27,9.17-1.43,18.3-1.9,27.46c0.5099,1.15,2.0099,1.18,3.04,1.69   c11.86,3.69,23.69,7.46,35.54,11.19c2.56,0.83,5.46,1.76,6.8,4.34c4.11,6.21-3.49,14.9-10.23,12.74   c-12.52-3.67-24.83-8.08-37.32-11.88c-0.27,4.53-1.23,9-1.23,13.54c3.64,5.71,8.97,10.23,12.41,16.09   c3.14,6.1-3.48,13.44-9.83,12.3c-2.86-0.52-4.9-2.73-6.63-4.87c-12.75-15.88-25.79-31.51-38.52-47.4   c-2.87-3.1-3.07-8.27,0.08-11.2599c3.03-3.91,9.52-4.71,12.85-0.7401c5.8,6.79,11.43,13.7401,16.94,20.78   C600.92,647.54,601.19,633.14,602.31,618.81z"/>
	<path fill="#000000" stroke="#000000" stroke-width="0.0938" d="M240.19,641.05c10.65-1.45,21.28,2.74,29.82,8.88   c8.53,6.06,15.08,15.5,16.05,26.09c1.21,11.64-3.77,23.04-10.94,31.96c-7.01,8.81-17.59,15.33-29.05,15.64   c-11.08,0.42-21.6-4.83-29.78-11.97c-6.61-5.6801-11.48-13.72-12.13-22.53c-1.03-11.17,3.58-22.02,9.83-31.03   C220.04,649.3,229.42,642.4,240.19,641.05 M244.48,656.59c-9.84,2.11-16.34,10.8799-20.44,19.47c-2.91,6.21-4.55,13.77-1.29,20.18   c3.41,6.44,10.2,10.83,17.3,12.06c7.21,1.17,14.02-3.03,18.65-8.21c5.61-6.46,10.36-14.35,10.66-23.11   C269.56,664.54,256.34,654.72,244.48,656.59z"/>
	<path fill="#000000" stroke="#000000" stroke-width="0.0938" d="M550.98,661.75c-2.58-6.12,4.45-11.33,9.98-10.8   c3.08,0.42,5.14,3.01,6.37,5.67c8.15,16.89,16.26,33.8,24.45,50.67c1.62,3.67,4.0699,7.47,3.31,11.66   c-1.07,4.64-5.86,6.98-10.06,8.15c-2.3701,0.78-4.76-0.27-6.78-1.44c-16.51-10.14-32.88-20.5099-49.39-30.6299   c6.59,14.1,13.75,27.95,20.12,42.15c2.92,6.47-5.04,12.34-10.93,10.79c-3.22-0.8799-4.69-4.1899-6.06-6.91   c-8.64-18.08-17.44-36.09-26.07-54.18c-1.44-2.99-2.03-6.89,0.33-9.6c3.17-3.71,8.46-6.27,13.35-4.73   c2.91,1.17,5.41,3.14,8.08,4.78c14.7,9.28,29.28,18.75,44.04,27.93C564.93,690.69,557.53,676.41,550.98,661.75z"/>
	<path fill="#000000" stroke="#000000" stroke-width="0.0938" d="M313.24,687.69c-2.32-3.88,0.33-9.55,4.78-10.25   c3.37-0.64,6.71,0.47,9.96,1.22c15.05,3.66,30.14,7.1201,45.18,10.79c3.92,0.79,8.25,4.1,7.45,8.57c-0.25,4.19-4.66,6.88-8.59,6.29   c-6.29-0.91-12.35-2.91-18.56-4.14c-4.31,17.88-8.52,35.79-12.82,53.67c-0.72,4.02-4.27,7.61-8.58,7.1   c-5.26,0.31-10.17-4.55-8.87-9.91c3.97-18.41,8.81-36.65,12.86-55.05c-5.07-1.24-10.15-2.43-15.22-3.61   C317.92,691.65,314.72,690.49,313.24,687.69z"/>
	<path fill="#000000" stroke="#000000" stroke-width="0.0938" d="M470.87,683.84c3.54-1.38,7.36-2.35,11.18-2.25   c3.2,0.23,5.32,2.91,6.9,5.41c11.37,17.65,22.77,35.27,34.15,52.91c1.62,2.71,3.69,5.76,2.86,9.09   c-1.2401,6.28-10.83,8.96-14.76,3.71c-2.93-3.84-5.2-8.12-7.86-12.12c-9.27,2.0699-18.48,4.3799-27.76,6.36   c-0.69,4.6-1.05,9.23-1.73,13.83c-0.58,6.9399-11.46,9.3199-15.18,3.58c-2-3.09-1.25-6.93-0.95-10.36   c2.85-21.23,5.68-42.46,8.59-63.68C466.59,687.55,468.17,684.84,470.87,683.84 M479.75,701.18c-1.24,10.93-2.06,21.89-3.27,32.82   c6.79-1.33,13.53-2.93,20.23-4.63C491.01,720.01,485.59,710.47,479.75,701.18z"/>
	<path fill="#000000" stroke="#000000" stroke-width="0.0938" d="M431.97,694.04c3.13-5.2599,12.01-5.32,15.21-0.08   c1.35,2.05,1.21,4.61,1.32,6.97c0.09,20.03,0.29,40.07,0.41,60.11c0.05,2.83-0.46,6.04-2.86,7.88c-3.58,2.7-9.2,2.59-12.51-0.51   c-1.93-1.93-2.27-4.8-2.28-7.39c-0.1-8.28-0.09-16.57-0.19-24.86c-10.8,0.01-21.59,0.09-32.39,0.2c0.04,8.86,0.22,17.73,0.14,26.59   c0.1,3.6-2.36,7.05-5.89,7.91c-5.25,1.93-11.86-1.91-11.64-7.78c-0.34-18.37-0.49-36.74-0.61-55.1c0.05-4.17-0.44-8.45,0.73-12.51   c2.38-6.06,12.04-6.8,15.52-1.4c1.4,1.98,1.46,4.51,1.53,6.86c0.08,6.81,0.02,13.63,0.16,20.45c10.72-0.02,21.45-0.15,32.17-0.19   c0.02-6.42-0.02-12.84-0.13-19.26C430.65,699.26,430.64,696.44,431.97,694.04z"/>
	<path fill="#FF1C00" stroke="#FF1C00" stroke-width="0.0938" d="M440.96,223.98c2.24-3.99,3.63-8.41,6.07-12.29   c1.68,11.05,4.15,22.15,9.21,32.2c2.74,4.91,6.17,10.2,11.65,12.31c5.39,1.25,11.29,0.79,16.31-1.63   c10.82-5.08,19.77-13.37,27.57-22.28c-0.06,11.97,0.5,24.37,5.46,35.46c2.85,6.67,8.59,12.5,15.9,13.89   c9.58,2.26,19.39-0.47,28.29-4.01c5.34-2.11,10.04-5.46,15.22-7.89c-6.4,11.72-13.42,23.72-14.79,37.26   c-0.8,5.86,1.01,12.51,6.23,15.84c10.03,7.6,23.53,5,34.79,2.09c-6.68,12.52-11.5,26.83-9.04,41.17   c0.94,5.58,6.26,8.76,10.82,11.25c10.8,5.28,22.66,8.04,34.49,9.83c-5.28,4.05-11.25,7.17-16.04,11.85   c-8.5,7.89-15.55,18.98-14.28,31.03c1.29,12.07,9.5,21.92,18.65,29.26c-7.6,1.06-15.18,3.9-20.64,9.45   c-6.5,6.53-11.18,15.83-9.55,25.24c0.73,6.99,4.9399,12.98,9.62,17.98c-6.7-0.76-13.4301-2.38-20.19-1.26   c-6.6,0.83-13.2401,3.17-17.93,8.06c-6.67,6.05-9.61,15.33-9.21,24.17c-0.02,5.21,1.82,10.15,2.44,15.28   c-8.67-3.39-17.52-7.42-27.06-6.91c-8.02-0.4-15.84,3.56-20.73,9.83c-6.65,8.22-9.14,18.86-10.11,29.17   c-8.03-8.37-16.89-16.91-28.45-19.92c-6.87-1.97-14.61,0.58-19,6.19c-5.49,7.1801-7.85,16.12-9.35,24.89   c-6.35-10.45-14.17-21.1-25.89-25.82c-6.57-2.77-14.18-1.2-19.83,2.88c-10.82,7.61-18.48,18.75-25.1,29.99   c-1.51-14.31-3.56-29.6-12.65-41.31c-4.28-5.74-11.49-8.84-18.59-7.62c-15.16,2.07-28.08,11.19-40.27,19.82   c2.6-10.19,4.87-20.85,2.79-31.35c-1.19-6.22-4.49-12.7-10.6-15.28c-6.2-2.5-13.13-1.03-19.21,1.11   c-8.24,2.66-15.64,7.28-22.9,11.9c3.44-14.44,7.43-29.99,2.5-44.57c-1.22-4.62-5.3-7.6-9.64-9.04   c-12.76-4.66-26.53-4.65-39.91-5.59c-13.36-0.6-26.68,0.71-40.02,0.9c16.5-8.79,32.76-18.36,47.03-30.53   c5.84-5.3,12.17-11.03,14.24-18.95c1.15-7.36-2.76-14.48-7.37-19.93c-6.46-7.2-14.66-12.49-22.99-17.25   c9.15-1.51,18.33-3.81,26.49-8.35c5.21-3.06,10.17-8.09,10.01-14.56c-0.46-7.87-4.97-14.73-9.47-20.92   c-2.96-4.26-6.67-7.9-10.25-11.62c12.55,0.08,26.18,2.29,37.64-4.16c4.87-2.37,5.81-8.31,5.82-13.18   c-0.63-12.51-5.18-24.34-9.76-35.85c11.26,5.6,24.04,9.59,36.69,6.93c5.81-1.79,11.46-5.26,14.41-10.76   c4.54-8.71,4.5-18.84,4.19-28.42c-0.15-6.75-1.81-13.34-2.36-20.06c1.62,2.86,3.75,5.39,6.11,7.67   c6.64,6.96,14.11,13.51,23.18,17.07c8.14,3.56,18.13,2.65,25.27-2.76c13.01-9.52,18.71-25.98,20.21-41.47   c3.07,11.02,6.76,23.34,16.97,29.85c7.13,4.97,16.69,3.48,23.99-0.29C428.38,244.22,435.51,234.24,440.96,223.98 M302.56,361.6   c-6.61,5.18-11.03,12.58-14.27,20.21c1.48-0.26,3.16-0.1,4.4-1.11c4.78-3.45,8.39-8.21,12.87-12c5.56-4.13,11.65-7.72,18.33-9.66   c9.04-2.48,18.96-3.57,27.84,0.09c6.4,2.98,11.57,8.37,14.36,14.86c2.21,5.65,10.2,9.96,15.36,5.38   c1.83-6.87-2.01-13.54-5.81-18.99c-7.35-9.11-18.87-15.13-30.68-14.86C329.4,344.98,314.42,351.91,302.56,361.6 M450.06,384.08   c-0.96,1.37-0.57,3.12-0.66,4.68c3.66-0.48,6.28-3.09,8.59-5.73c4.83-5.51,11.5-8.84,17.95-12.06c5.29-2.76,11.17-4.25,17.06-5.09   c15.31-1.64,30.82,8.84,35.16,23.59c1.4,6.29,12,10.73,15.41,3.74c0.26-5.85-0.11-12.27-3.74-17.13   c-4.98-5.85-10.81-11.16-17.84-14.42c-6.81-3.44-14.61-3.56-22.05-4.1C480.08,356.8,461.2,368.05,450.06,384.08 M423.49,364.33   c-1.18,2.38-2.15,4.91-2.09,7.62c-0.77,17.01,1.73,34.2,7.33,50.29c2.75,7.24,5.85,15.02,12.38,19.71c2.35,1.97,5.55,1.35,8.37,1.4   c0.59-2.93,0.07-5.87-1.49-8.4c-8.73-16.29-16.1-33.62-18.85-52c-1.14-6.16-1.22-12.47-2.74-18.56   C425.42,364.37,424.45,364.35,423.49,364.33 M322.02,457.57c3.32,0.08,6.64,0.14,9.97,0.11c18.85,19,40.34,36.06,65.34,46.17   c16.08,6.29,33.81,9.66,50.99,6.53c25.22-3.88,51.14-13.84,67.66-34.13c4.44-5.7,9.03-11.88,10.19-19.19   c-1.95,0.04-3.77,0.49-4.5,2.44c-4.57,8.13-11.66,14.46-19.25,19.71c-18,11.41-39.4,16.38-60.48,17.68   c-8.97,1.25-18-0.02-26.94-0.94c-13.02-1.92-25.73-5.8-37.69-11.28c-17.37-8.5-33.9-19.53-46.57-34.3   C327.66,452.55,324.91,455.15,322.02,457.57z"/>
</g>
</svg>