<?xml version="1.0" encoding="utf-8"?>
<!-- Generator: Adobe Illustrator 15.0.0, SVG Export Plug-In . SVG Version: 6.00 Build 0)  -->
<!DOCTYPE svg PUBLIC "-//W3C//DTD SVG 1.1//EN" "http://www.w3.org/Graphics/SVG/1.1/DTD/svg11.dtd">
<svg version="1.1" id="svg2474" xmlns:svg="http://www.w3.org/2000/svg"
	 xmlns="http://www.w3.org/2000/svg" xmlns:xlink="http://www.w3.org/1999/xlink" x="0px" y="0px" width="36.841px" height="16px"
	 viewBox="491.989 222.235 36.841 16" enable-background="new 491.989 222.235 36.841 16" xml:space="preserve">
<path id="path2465" fill="#ddd" d="M492.406,231.805c-0.077,0-0.138,0.06-0.148,0.145l-0.269,2.046l0.269,2.011
	c0.01,0.085,0.071,0.144,0.148,0.144c0.074,0,0.135-0.059,0.147-0.143l0,0v0c0,0,0,0,0,0l0.319-2.012l-0.319-2.047
	C492.542,231.864,492.48,231.805,492.406,231.805z M493.921,230.687c-0.013-0.088-0.076-0.148-0.153-0.148
	c-0.078,0-0.143,0.062-0.153,0.148c0,0.001-0.362,3.309-0.362,3.309l0.362,3.235c0.01,0.086,0.075,0.149,0.153,0.149
	c0.077,0,0.14-0.061,0.153-0.149l0.412-3.236L493.921,230.687z M499.628,227.635c-0.149,0-0.271,0.122-0.279,0.276l-0.288,6.087
	l0.288,3.934c0.008,0.154,0.13,0.275,0.279,0.275c0.147,0,0.27-0.122,0.279-0.276v0.001l0.326-3.935l-0.326-6.087
	C499.898,227.756,499.776,227.635,499.628,227.635z M496.675,229.75c-0.114,0-0.208,0.091-0.217,0.213l-0.325,4.033l0.325,3.902
	c0.009,0.121,0.103,0.212,0.217,0.212c0.113,0,0.206-0.091,0.216-0.212l0.369-3.902l-0.369-4.034
	C496.881,229.842,496.788,229.75,496.675,229.75z M502.63,238.207c0.184,0,0.334-0.148,0.342-0.338l0.283-3.868l-0.283-8.104
	c-0.007-0.19-0.157-0.338-0.341-0.338c-0.186,0-0.336,0.149-0.342,0.339c0,0-0.251,8.104-0.251,8.104l0.251,3.87
	C502.294,238.058,502.444,238.207,502.63,238.207z M508.775,238.225c0.253,0,0.462-0.209,0.467-0.466v0.003v-0.003l0.197-3.757
	l-0.197-9.36c-0.004-0.256-0.214-0.466-0.467-0.466c-0.254,0-0.464,0.209-0.468,0.466L508.131,234c0,0.006,0.176,3.762,0.176,3.762
	C508.312,238.016,508.521,238.225,508.775,238.225z M505.679,238.21c0.221,0,0.398-0.177,0.404-0.403v0.003l0.24-3.809l-0.24-8.163
	c-0.006-0.226-0.184-0.402-0.405-0.402c-0.222,0-0.4,0.177-0.405,0.402l-0.214,8.164l0.214,3.808
	C505.279,238.033,505.457,238.21,505.679,238.21z M498.146,238.175c0.131,0,0.237-0.105,0.248-0.244l0.348-3.935l-0.348-3.743
	c-0.01-0.138-0.116-0.242-0.248-0.242c-0.133,0-0.239,0.105-0.248,0.244l-0.306,3.741l0.306,3.934
	C497.907,238.07,498.013,238.175,498.146,238.175z M495.215,237.959c0.096,0,0.173-0.076,0.185-0.18l0.391-3.783l-0.39-3.925
	c-0.012-0.105-0.089-0.181-0.185-0.181c-0.097,0-0.175,0.076-0.185,0.181c0,0-0.344,3.925-0.344,3.925l0.344,3.782
	C495.04,237.883,495.118,237.959,495.215,237.959z M507.221,225.702c-0.24,0-0.432,0.19-0.437,0.435l-0.195,7.865l0.195,3.784
	c0.005,0.241,0.196,0.432,0.437,0.432c0.239,0,0.43-0.19,0.436-0.434v0.003l0.219-3.785l-0.219-7.866
	C507.651,225.893,507.46,225.702,507.221,225.702z M501.124,238.214c0.166,0,0.302-0.135,0.31-0.307l0.305-3.908l-0.305-7.48
	c-0.008-0.172-0.145-0.307-0.31-0.307c-0.167,0-0.303,0.135-0.311,0.307c0,0-0.27,7.48-0.27,7.48l0.27,3.909
	C500.82,238.08,500.957,238.214,501.124,238.214z M504.521,237.846v-0.002l0.261-3.843l-0.261-8.377
	c-0.006-0.208-0.17-0.371-0.373-0.371c-0.204,0-0.368,0.163-0.373,0.371L503.543,234l0.233,3.845
	c0.005,0.206,0.169,0.369,0.373,0.369s0.366-0.163,0.373-0.37V237.846z M524.299,229.171c-0.62,0-1.213,0.126-1.752,0.352
	c-0.361-4.084-3.786-7.288-7.963-7.288c-1.022,0-2.02,0.202-2.899,0.542c-0.342,0.132-0.433,0.269-0.437,0.533v14.382
	c0.004,0.277,0.219,0.508,0.489,0.536c0.012,0.001,12.48,0.007,12.561,0.007c2.503,0,4.531-2.029,4.531-4.532
	C528.83,231.201,526.802,229.171,524.299,229.171z M510.322,223.297c-0.272,0-0.496,0.224-0.5,0.498l-0.205,10.208l0.205,3.705
	c0.003,0.271,0.227,0.494,0.499,0.494c0.271,0,0.495-0.223,0.499-0.498v0.004l0.222-3.705l-0.222-10.209
	C510.817,223.521,510.594,223.297,510.322,223.297z"/>
</svg>
