<?xml version="1.0" encoding="utf-8"?>
<svg version="1.0" xmlns="http://www.w3.org/2000/svg" xmlns:xlink="http://www.w3.org/1999/xlink" x="0px" y="0px" viewBox="0 0 70.9 70.9" style="enable-background:new 0 0 70.9 70.9;" xml:space="preserve">
<g>
	<polygon points="36.5,15.9 36.5,9.2 63.8,7.1 61.6,34.4 54.9,34.4 56.6,14.2"/>
	<polygon points="41.4,34.4 43.9,26.9 36.5,29.4 36.5,22.3 53.6,17.3 48.6,34.4"/>
	<polygon points="12,7.1 14.5,14.5 7.1,12.1 7.1,19.2 24.2,24.2 19.2,7.1"/>
	<polygon points="58.8,63.8 51.7,63.8 46.7,46.7 63.8,51.7 63.8,58.8 56.3,56.3"/>
	<polygon points="63.8,45.3 43.7,43.6 45.4,63.8 38.6,63.8 36.5,36.5 63.8,38.6"/>
	<polygon points="25.5,7.1 27.2,27.2 7.1,25.5 7.1,32.3 34.4,34.4 32.2,7.1"/>
	<polygon points="9.2,36.5 7.1,63.8 34.4,61.7 34.4,54.9 14.3,56.6 16,36.5"/>
	<polygon points="29.4,36.5 26.9,43.9 34.4,41.5 34.4,48.6 17.3,53.6 22.3,36.5"/>
</g>
</svg>
