<svg id="svg" version="1.1" xmlns="http://www.w3.org/2000/svg" xmlns:xlink="http://www.w3.org/1999/xlink" width="400" height="400" viewBox="0, 0, 400,400"><g id="svgg"><path id="path0" d="M252.581 39.456 C 252.581 39.511,253.052 39.983,253.629 40.504 L 254.677 41.452 253.730 40.403 C 252.847 39.426,252.581 39.207,252.581 39.456 M130.645 72.097 C 132.324 73.782,133.770 75.161,133.858 75.161 C 133.947 75.161,132.646 73.782,130.968 72.097 C 129.289 70.411,127.843 69.032,127.755 69.032 C 127.666 69.032,128.967 70.411,130.645 72.097 M134.194 86.613 C 136.939 89.363,139.258 91.613,139.347 91.613 C 139.436 91.613,137.262 89.363,134.516 86.613 C 131.770 83.863,129.451 81.613,129.363 81.613 C 129.274 81.613,131.448 83.863,134.194 86.613 M244.274 85.061 C 244.585 85.142,245.093 85.142,245.403 85.061 C 245.714 84.980,245.460 84.914,244.839 84.914 C 244.218 84.914,243.964 84.980,244.274 85.061 M80.305 90.565 L 79.194 91.774 80.403 90.663 C 81.529 89.628,81.761 89.355,81.515 89.355 C 81.461 89.355,80.917 89.899,80.305 90.565 M215.958 102.742 C 206.801 126.101,188.721 129.576,183.228 109.032 C 182.779 107.355,182.632 107.097,182.494 107.742 C 177.464 131.125,164.531 135.740,149.202 119.621 C 147.460 117.789,146.127 116.581,146.239 116.935 C 148.182 123.070,147.679 135.524,145.327 139.537 C 141.613 145.875,131.647 146.876,121.857 141.894 L 120.650 141.280 121.337 142.979 C 128.966 161.864,126.480 167.295,110.233 167.238 L 104.498 167.218 105.901 168.689 C 118.128 181.515,116.263 189.133,99.901 193.199 L 96.414 194.066 99.408 195.823 C 107.445 200.541,112.501 208.265,110.635 212.974 C 108.533 218.276,98.966 226.114,85.475 233.586 L 81.756 235.645 94.830 235.645 C 117.107 235.645,122.976 237.154,124.932 243.383 C 126.236 247.540,125.698 256.200,123.734 262.630 L 123.275 264.131 125.912 262.493 C 138.475 254.688,146.656 255.526,148.852 264.843 C 149.686 268.380,149.298 274.310,147.938 278.813 C 147.486 280.312,147.490 280.353,148.069 279.942 C 160.913 270.819,169.038 268.536,174.185 272.604 C 178.099 275.698,181.091 283.161,181.866 291.763 L 182.097 294.332 184.660 290.472 C 195.012 274.885,205.146 273.956,214.370 287.747 C 216.462 290.875,216.479 290.878,217.014 288.231 C 219.884 274.032,229.382 271.743,240.688 282.527 C 243.545 285.252,243.858 285.467,243.982 284.785 C 245.279 277.628,245.967 275.550,248.023 272.581 C 252.448 266.190,259.918 265.012,269.632 269.173 C 271.591 270.012,272.277 270.192,272.139 269.831 C 266.581 255.349,277.386 243.755,292.829 247.631 C 293.485 247.796,293.377 247.549,291.985 245.711 C 285.376 236.979,290.435 224.857,301.631 222.600 L 303.424 222.238 300.641 219.421 C 290.584 209.239,293.278 197.163,307.518 188.599 L 309.390 187.472 307.518 187.109 C 298.346 185.327,291.006 182.471,288.598 179.748 C 285.855 176.646,286.857 166.901,290.707 159.242 C 291.837 156.993,291.838 156.995,289.884 157.583 C 283.847 159.400,277.671 158.675,274.352 155.760 C 270.291 152.195,271.308 144.505,277.268 133.710 C 278.150 132.113,278.922 130.690,278.984 130.547 C 279.046 130.405,278.380 130.730,277.503 131.270 C 260.009 142.034,248.574 136.666,247.831 117.342 L 247.648 112.587 244.219 115.890 C 229.592 129.979,220.430 126.251,216.661 104.677 C 216.332 102.789,216.143 102.270,215.958 102.742 M107.185 104.516 C 107.185 105.315,107.248 105.641,107.324 105.242 C 107.401 104.843,107.401 104.190,107.324 103.790 C 107.248 103.391,107.185 103.718,107.185 104.516 M81.277 110.081 C 82.614 111.505,82.903 111.761,82.903 111.519 C 82.903 111.467,82.214 110.777,81.371 109.987 L 79.839 108.548 81.277 110.081 M102.886 113.468 L 101.774 114.677 102.984 113.566 C 104.110 112.531,104.342 112.258,104.096 112.258 C 104.042 112.258,103.497 112.802,102.886 113.468 M92.343 127.328 C 92.833 127.402,93.559 127.400,93.956 127.324 C 94.353 127.247,93.952 127.187,93.065 127.189 C 92.177 127.191,91.853 127.254,92.343 127.328 M171.421 167.734 C 178.379 169.514,184.839 176.187,184.839 181.596 C 184.839 185.995,179.264 185.213,176.952 180.489 C 171.602 169.554,156.622 169.900,144.876 181.231 C 140.256 185.688,138.731 186.025,140.728 182.147 C 146.029 171.848,160.654 164.980,171.421 167.734 M246.590 173.385 C 255.655 174.591,262.868 181.081,262.968 188.121 C 263.039 193.120,257.160 193.200,255.522 188.222 C 251.109 174.814,234.354 173.330,221.722 185.229 C 219.128 187.672,217.811 188.315,217.252 187.410 C 216.605 186.363,223.224 179.282,226.841 177.151 C 233.250 173.377,238.708 172.336,246.590 173.385 M206.417 176.855 C 206.567 177.254,206.868 179.105,207.087 180.968 C 208.268 191.025,210.675 198.648,215.842 208.695 C 218.587 214.034,218.038 215.734,214.103 214.080 C 208.476 211.715,202.723 192.594,203.907 180.195 C 204.236 176.753,205.666 174.850,206.417 176.855 M370.737 178.226 C 370.740 179.113,370.802 179.438,370.877 178.947 C 370.951 178.457,370.949 177.731,370.872 177.334 C 370.796 176.938,370.735 177.339,370.737 178.226 M162.323 220.407 C 171.628 229.665,184.400 236.587,196.999 239.200 C 218.492 243.657,244.667 235.992,251.936 223.114 C 252.870 221.457,254.155 220.499,254.704 221.048 C 255.060 221.404,253.380 225.025,251.602 227.732 C 244.988 237.804,231.671 244.951,215.431 247.144 C 199.851 249.247,181.831 241.404,164.138 224.819 L 160.374 221.290 158.171 221.287 L 155.968 221.283 157.742 219.688 C 159.948 217.704,159.543 217.641,162.323 220.407 M89.163 289.430 C 88.736 289.930,88.712 290.024,89.082 289.739 C 89.514 289.405,89.645 289.406,89.774 289.745 C 89.862 289.974,89.918 289.835,89.898 289.435 C 89.855 288.555,89.909 288.555,89.163 289.430 " stroke="none" fill="#FF1C00" fill-rule="evenodd"></path><path id="path1" d="M191.608 29.307 C 190.745 29.765,188.703 32.448,182.830 40.837 C 178.620 46.850,175.062 51.807,174.925 51.853 C 174.787 51.899,174.215 48.318,173.653 43.895 C 173.066 39.269,172.416 35.398,172.121 34.781 C 170.180 30.714,163.253 31.554,162.256 35.978 C 161.959 37.294,166.781 76.174,167.441 77.785 C 169.101 81.837,175.701 81.703,177.274 77.584 C 177.799 76.209,177.793 75.905,177.137 70.895 C 176.189 63.641,176.075 64.302,178.896 60.701 C 180.241 58.985,181.387 57.581,181.442 57.581 C 181.498 57.581,184.980 61.645,189.180 66.613 C 197.740 76.738,198.130 77.100,200.475 77.090 C 203.889 77.075,206.125 75.149,206.128 72.222 C 206.129 70.263,206.050 70.154,196.710 59.284 C 192.398 54.267,188.690 49.930,188.469 49.647 C 188.129 49.210,188.818 48.108,193.047 42.323 C 198.893 34.328,198.710 34.636,198.710 32.807 C 198.710 29.549,194.789 27.617,191.608 29.307 M221.221 31.792 C 219.364 32.800,218.965 34.106,214.543 53.669 C 212.222 63.937,210.323 72.835,210.323 73.443 C 210.323 77.109,215.347 79.766,218.357 77.693 C 220.268 76.377,220.579 75.615,222.292 68.065 C 223.198 64.073,223.976 60.766,224.022 60.716 C 224.223 60.498,235.755 63.353,236.774 63.872 C 239.943 65.487,240.545 68.071,239.351 74.946 C 238.188 81.641,239.985 84.841,244.907 84.838 C 248.502 84.835,249.677 83.178,249.677 78.111 C 249.677 76.350,249.909 73.696,250.191 72.213 C 251.234 66.736,250.484 63.950,247.452 62.033 L 246.022 61.129 247.511 60.916 C 258.272 59.377,260.039 42.864,249.992 37.738 C 244.384 34.877,223.492 30.559,221.221 31.792 M139.313 39.324 C 135.276 40.903,133.019 42.728,132.557 44.786 C 132.227 46.252,132.237 46.319,135.935 66.451 C 137.254 73.637,138.296 79.553,138.251 79.599 C 138.205 79.645,132.896 74.301,126.452 67.725 C 112.864 53.856,112.425 53.540,108.830 55.036 C 104.222 56.952,101.939 59.074,101.937 61.442 C 101.935 62.730,119.245 97.002,121.190 99.563 C 123.960 103.210,130.427 100.479,129.512 96.047 C 129.393 95.471,126.386 89.339,122.830 82.419 C 119.274 75.500,116.145 69.405,115.876 68.875 C 115.607 68.344,120.860 73.280,127.549 79.842 C 141.849 93.872,142.194 94.082,145.647 90.825 C 147.419 89.154,147.430 89.316,144.403 71.338 C 142.865 62.207,141.664 54.680,141.733 54.611 C 141.803 54.541,144.889 60.381,148.591 67.587 C 155.535 81.103,156.705 82.938,158.623 83.321 C 161.750 83.947,164.978 80.939,164.382 77.955 C 164.143 76.762,146.436 42.290,145.241 40.692 C 143.796 38.760,141.883 38.319,139.313 39.324 M235.273 41.969 C 243.807 43.899,245.806 45.209,245.806 48.871 C 245.806 53.099,243.446 55.781,239.710 55.799 C 238.227 55.807,226.481 53.331,226.033 52.916 C 225.597 52.513,228.426 40.645,228.958 40.645 C 229.211 40.645,232.053 41.241,235.273 41.969 M287.903 55.222 C 286.982 55.740,255.634 78.887,253.778 80.419 C 249.914 83.608,250.721 88.289,255.376 89.683 C 257.292 90.257,257.868 90.013,261.970 86.890 C 263.991 85.351,265.790 84.094,265.968 84.097 C 266.206 84.100,280.336 93.081,280.514 93.342 C 280.531 93.367,280.056 95.419,279.458 97.903 C 278.184 103.202,278.277 104.081,280.306 105.914 C 282.923 108.278,286.553 107.801,288.034 104.898 C 288.789 103.419,298.065 63.650,298.065 61.893 C 298.065 58.155,290.968 53.496,287.903 55.222 M285.247 76.015 C 283.869 81.151,282.597 85.377,282.419 85.405 C 282.098 85.457,271.853 79.004,272.013 78.850 C 272.861 78.034,287.549 66.474,287.633 66.558 C 287.698 66.623,286.624 70.878,285.247 76.015 M87.581 76.962 C 83.471 77.953,81.999 78.561,78.939 80.530 C 69.588 86.546,64.596 98.014,67.375 107.097 C 69.825 115.106,77.490 122.820,86.129 125.972 C 102.608 131.985,121.132 113.371,115.668 96.290 C 111.843 84.334,97.614 74.542,87.581 76.962 M320.161 82.002 C 318.239 82.674,289.670 106.410,288.306 108.468 C 285.277 113.041,291.167 118.685,295.711 115.565 C 296.421 115.077,299.350 112.718,302.220 110.323 C 305.090 107.927,307.560 105.968,307.710 105.968 C 307.859 105.968,310.538 109.035,313.663 112.783 C 320.993 121.577,322.300 122.243,325.284 118.697 C 327.208 116.410,326.793 115.561,319.548 106.958 C 316.848 103.752,314.536 100.956,314.409 100.744 C 314.189 100.377,321.942 93.548,322.578 93.548 C 322.727 93.548,325.618 96.871,329.002 100.931 C 337.888 111.595,338.982 112.287,342.072 109.197 C 344.716 106.553,344.349 105.840,333.946 93.387 C 323.966 81.441,323.312 80.901,320.161 82.002 M93.107 87.367 C 98.466 89.220,104.873 95.540,106.668 100.746 C 109.849 109.975,99.690 119.901,90.578 116.465 C 82.086 113.262,75.259 104.222,76.450 97.757 C 77.889 89.948,85.977 84.903,93.107 87.367 M58.187 106.915 C 56.596 107.607,55.985 108.656,48.060 124.295 C 41.544 137.152,40.567 139.271,40.547 140.594 C 40.504 143.443,42.558 145.422,45.191 145.069 C 47.366 144.777,48.104 143.926,50.998 138.369 C 52.489 135.505,53.855 133.103,54.032 133.030 C 54.210 132.957,61.105 136.312,69.355 140.484 C 77.605 144.656,84.899 148.219,85.565 148.402 C 89.921 149.599,93.698 143.834,91.020 140.074 C 90.481 139.317,86.875 137.347,74.921 131.282 C 66.448 126.984,59.378 123.340,59.209 123.185 C 59.021 123.011,59.923 120.825,61.555 117.500 C 63.556 113.425,64.206 111.780,64.199 110.806 C 64.179 107.651,61.090 105.652,58.187 106.915 M342.354 111.600 C 339.589 113.286,339.700 115.446,342.904 122.340 C 344.203 125.135,345.201 127.487,345.122 127.566 C 345.043 127.646,338.088 130.929,329.666 134.864 C 321.245 138.798,313.953 142.300,313.463 142.647 C 309.493 145.450,312.585 152.976,317.349 152.107 C 318.009 151.987,325.563 148.615,334.136 144.613 C 342.710 140.611,349.839 137.465,349.979 137.620 C 350.118 137.776,351.063 139.718,352.079 141.935 C 355.256 148.876,356.191 149.996,358.806 149.999 C 361.427 150.001,363.047 148.319,363.014 145.629 C 362.993 143.854,349.512 114.288,347.972 112.639 C 346.349 110.900,344.164 110.496,342.354 111.600 M57.742 154.523 C 33.657 157.535,34.738 157.185,33.431 162.388 C 31.944 168.307,31.172 167.517,51.613 180.986 C 72.705 194.884,72.817 194.940,75.456 192.974 C 79.466 189.985,78.489 186.317,72.716 182.683 C 70.426 181.241,68.718 179.954,68.726 179.677 C 68.734 179.411,69.570 175.565,70.584 171.129 L 72.427 163.065 77.097 162.505 C 82.351 161.876,82.962 161.601,84.113 159.348 C 85.983 155.689,83.615 151.885,79.521 151.969 C 78.631 151.987,68.831 153.136,57.742 154.523 M354.961 160.446 C 350.982 162.247,352.291 167.085,357.253 168.917 C 361.915 170.638,362.978 171.909,363.153 175.968 C 363.466 183.210,357.524 184.141,350.645 177.929 C 345.102 172.922,341.124 171.862,338.340 174.649 C 335.802 177.192,337.320 180.801,341.343 181.787 C 343.487 182.312,343.754 182.490,347.038 185.564 C 353.649 191.752,356.900 192.983,362.239 191.321 C 373.875 187.700,373.508 166.488,361.716 161.055 C 359.486 160.028,356.483 159.757,354.961 160.446 M64.516 164.151 C 64.516 164.459,61.916 175.933,61.826 176.023 C 61.737 176.112,45.400 166.175,45.036 165.810 C 44.816 165.590,44.862 165.477,45.177 165.463 C 45.435 165.452,49.129 165.108,53.387 164.699 C 62.083 163.863,64.516 163.744,64.516 164.151 M161.327 167.595 C 152.250 169.564,144.322 175.165,140.728 182.147 C 138.731 186.025,140.256 185.688,144.876 181.231 C 156.622 169.900,171.602 169.554,176.952 180.489 C 178.299 183.243,180.781 184.874,182.840 184.360 C 185.381 183.726,185.549 181.485,183.380 177.152 C 179.539 169.478,170.567 165.590,161.327 167.595 M236.298 173.426 C 229.769 174.604,220.894 180.515,217.845 185.716 C 216.046 188.785,218.239 188.509,221.722 185.229 C 234.354 173.330,251.109 174.814,255.522 188.222 C 257.160 193.200,263.039 193.120,262.968 188.121 C 262.827 178.162,249.805 170.988,236.298 173.426 M325.000 175.280 C 320.316 178.168,322.266 185.000,327.775 185.000 C 334.497 185.000,334.709 175.097,327.997 174.608 C 326.608 174.507,326.050 174.632,325.000 175.280 M204.661 176.916 C 200.576 183.150,207.756 211.413,214.103 214.080 C 218.038 215.734,218.587 214.034,215.842 208.695 C 210.675 198.648,208.268 191.025,207.087 180.968 C 206.509 176.046,205.898 175.027,204.661 176.916 M157.742 219.688 L 155.968 221.283 158.171 221.287 L 160.374 221.290 164.138 224.819 C 181.831 241.404,199.851 249.247,215.431 247.144 C 231.671 244.951,244.988 237.804,251.602 227.732 C 253.380 225.025,255.060 221.404,254.704 221.048 C 254.155 220.499,252.870 221.457,251.936 223.114 C 244.667 235.992,218.492 243.657,196.999 239.200 C 184.400 236.587,171.628 229.665,162.323 220.407 C 159.543 217.641,159.948 217.704,157.742 219.688 M306.613 265.765 C 303.334 267.801,303.303 268.471,305.736 284.435 C 306.770 291.222,307.536 296.771,307.437 296.768 C 307.339 296.765,304.500 294.501,301.129 291.737 C 297.758 288.973,294.533 286.508,293.962 286.259 C 289.458 284.296,284.680 289.985,287.450 294.012 C 288.377 295.360,318.417 319.902,319.909 320.531 C 323.483 322.036,327.362 319.013,327.028 314.984 C 326.851 312.843,326.728 312.700,321.092 308.043 C 316.322 304.102,316.745 304.912,316.249 298.767 L 316.032 296.082 317.129 296.268 C 319.071 296.599,339.118 298.710,340.305 298.708 C 344.047 298.705,346.732 293.427,344.549 290.367 C 343.335 288.665,342.490 288.491,328.434 287.043 L 315.184 285.678 315.018 284.855 C 314.927 284.403,314.402 280.483,313.852 276.145 C 313.302 271.798,312.640 267.847,312.379 267.341 C 311.348 265.348,308.526 264.577,306.613 265.765 M91.663 273.227 C 88.650 275.409,62.413 300.356,61.671 301.744 C 59.609 305.602,64.542 310.537,68.445 308.519 C 68.991 308.236,74.064 303.657,79.719 298.343 C 85.373 293.029,90.000 288.806,90.000 288.959 C 90.000 289.113,88.038 296.836,85.641 306.123 C 80.149 327.393,80.387 325.609,82.660 328.438 C 84.792 331.092,87.633 331.985,90.148 330.791 C 91.157 330.312,115.242 308.159,119.568 303.730 C 122.040 301.200,122.015 298.654,119.494 296.227 C 116.113 292.970,115.660 293.217,102.817 305.307 C 96.921 310.858,92.051 315.361,91.995 315.313 C 91.939 315.266,94.008 307.354,96.592 297.732 C 102.127 277.122,102.115 277.234,98.980 274.323 C 96.327 271.860,94.025 271.515,91.663 273.227 M55.811 281.518 C 52.225 283.403,50.983 287.606,52.996 291.041 C 57.632 298.951,69.386 292.668,65.242 284.495 C 63.394 280.851,59.451 279.606,55.811 281.518 M62.116 283.238 C 64.833 284.917,65.142 288.485,62.776 290.854 C 59.096 294.541,53.529 292.511,53.934 287.629 C 54.259 283.709,58.872 281.233,62.116 283.238 M57.788 285.191 C 55.075 286.860,54.479 287.512,55.098 288.130 C 55.343 288.375,55.788 288.271,56.633 287.773 C 58.063 286.929,58.339 287.101,57.768 288.480 C 56.977 290.389,56.938 291.613,57.668 291.613 C 58.090 291.613,58.451 291.256,58.726 290.565 C 59.270 289.198,59.200 289.249,59.965 289.659 C 60.469 289.928,60.898 289.903,61.736 289.553 C 63.541 288.799,63.553 287.656,61.784 284.854 C 60.764 283.239,60.990 283.220,57.788 285.191 M61.157 286.288 C 61.770 287.223,61.565 288.065,60.725 288.065 C 59.783 288.065,58.918 286.367,59.617 285.891 C 60.408 285.354,60.573 285.397,61.157 286.288 M273.060 300.034 C 269.286 302.028,267.419 304.107,267.419 306.317 C 267.419 307.692,277.509 346.935,278.363 348.882 C 279.677 351.877,282.515 352.791,285.347 351.132 C 288.301 349.400,288.540 348.090,286.935 342.397 C 286.315 340.193,285.808 338.208,285.810 337.985 C 285.813 337.661,295.152 330.826,299.059 328.289 L 299.956 327.706 302.906 329.841 C 307.076 332.858,307.748 333.223,309.126 333.225 C 313.093 333.229,315.920 328.581,313.819 325.510 C 313.100 324.459,280.854 301.479,277.997 299.982 C 276.442 299.167,274.664 299.186,273.060 300.034 M124.355 303.829 C 123.823 304.160,123.073 304.776,122.690 305.199 C 122.125 305.822,108.409 330.507,104.996 337.044 C 103.186 340.510,103.471 343.144,105.849 344.909 C 108.914 347.186,131.466 359.144,132.966 359.288 C 136.242 359.603,138.528 355.854,136.794 353.010 C 136.097 351.867,135.349 351.412,123.618 344.989 C 117.313 341.538,115.505 340.410,115.652 340.020 C 116.216 338.531,120.755 330.645,121.048 330.645 C 121.237 330.645,125.120 332.683,129.676 335.173 C 140.503 341.091,141.565 341.321,143.207 338.102 C 145.030 334.529,144.315 333.783,133.310 327.775 C 128.654 325.233,124.895 323.061,124.955 322.948 C 126.988 319.135,129.783 314.194,129.907 314.194 C 129.998 314.194,133.866 316.280,138.504 318.831 C 149.557 324.910,150.075 325.161,151.559 325.161 C 154.932 325.161,156.779 320.716,154.435 318.236 C 153.416 317.156,130.907 304.560,128.388 303.658 C 126.776 303.082,125.469 303.137,124.355 303.829 M256.290 312.217 C 224.893 324.182,226.125 323.617,225.628 326.271 C 224.670 331.374,228.557 332.454,236.712 329.351 C 239.606 328.250,242.060 327.437,242.167 327.544 C 242.274 327.651,245.074 334.843,248.388 343.525 C 251.702 352.208,254.663 359.692,254.967 360.155 C 257.516 364.046,264.510 362.097,264.574 357.479 C 264.596 355.849,264.995 356.996,258.169 339.075 C 254.900 330.494,252.269 323.439,252.323 323.398 C 252.376 323.357,254.452 322.556,256.935 321.619 C 264.348 318.822,265.484 317.980,265.484 315.282 C 265.484 310.966,262.331 309.915,256.290 312.217 M285.748 316.935 C 290.024 320.129,293.525 322.815,293.529 322.903 C 293.537 323.088,283.429 330.279,283.306 330.176 C 283.262 330.138,281.991 325.983,280.481 320.941 C 278.972 315.899,277.666 311.581,277.578 311.344 C 277.325 310.660,277.566 310.825,285.748 316.935 M174.921 323.111 C 173.099 324.009,172.722 325.118,169.153 340.042 C 164.392 359.956,163.611 361.407,158.413 360.007 C 154.995 359.087,154.508 357.934,154.869 351.613 C 155.193 345.928,148.520 344.247,145.909 349.355 C 140.924 359.107,149.871 369.248,162.922 368.636 C 169.022 368.350,173.170 365.220,175.328 359.274 C 176.357 356.440,182.903 328.948,182.903 327.462 C 182.903 323.846,178.404 321.394,174.921 323.111 " stroke="none" fill="#000000" fill-rule="evenodd"></path><path id="path2" d="M190.806 18.290 C 110.197 21.829,39.497 81.435,21.954 160.645 C -3.452 275.360,83.121 383.547,200.323 383.547 C 310.909 383.547,396.148 286.087,381.422 176.481 C 368.745 82.124,286.752 14.078,190.806 18.290 M196.807 29.440 C 200.196 31.697,199.777 33.193,193.245 42.155 C 188.252 49.006,188.130 49.211,188.684 49.839 C 192.075 53.685,205.247 69.186,205.662 69.819 C 207.095 72.006,205.636 75.926,203.074 76.771 C 199.007 78.113,198.631 77.844,189.444 67.009 C 185.115 61.905,181.445 57.808,181.288 57.905 C 181.008 58.078,177.166 62.971,176.644 63.819 C 176.495 64.060,176.701 66.771,177.109 69.958 C 177.951 76.527,177.852 77.696,176.326 79.222 C 173.741 81.807,169.037 81.249,167.583 78.185 C 166.412 75.718,161.744 37.047,162.407 35.311 C 164.172 30.688,171.319 31.009,172.560 35.768 C 172.728 36.410,173.246 39.984,173.711 43.710 C 174.177 47.435,174.658 50.803,174.779 51.194 C 174.964 51.788,176.235 50.136,182.593 41.037 C 187.405 34.149,190.582 29.903,191.269 29.440 C 192.763 28.434,195.296 28.433,196.807 29.440 M235.645 33.552 C 248.869 36.550,251.762 37.759,254.596 41.479 C 259.615 48.066,255.593 59.802,247.958 60.849 C 246.109 61.102,246.104 61.228,247.895 62.315 C 250.563 63.934,251.432 67.448,250.313 72.097 C 250.099 72.984,249.829 75.720,249.712 78.178 L 249.499 82.646 248.342 83.707 C 244.756 86.992,238.724 83.894,238.711 78.762 C 238.710 78.347,239.013 76.249,239.384 74.100 C 240.444 67.958,239.814 65.517,236.774 63.983 C 235.299 63.239,224.255 60.598,224.055 60.941 C 223.995 61.045,223.257 64.177,222.416 67.903 C 221.574 71.629,220.618 75.207,220.292 75.855 C 218.003 80.389,210.323 78.523,210.323 73.433 C 210.323 71.986,217.904 37.787,218.885 34.810 C 220.339 30.394,221.368 30.317,235.645 33.552 M144.695 40.036 C 146.923 42.279,164.342 76.612,164.349 78.772 C 164.356 81.016,163.105 82.582,160.788 83.231 C 157.278 84.214,156.739 83.528,148.558 67.665 C 144.838 60.452,141.767 54.579,141.734 54.614 C 141.700 54.649,142.900 61.863,144.399 70.645 C 147.725 90.131,147.725 90.121,144.126 91.967 C 141.158 93.489,140.994 93.371,127.464 79.901 L 115.411 67.903 117.348 71.613 C 130.504 96.807,130.490 96.774,128.980 99.032 C 127.141 101.782,123.717 102.251,121.616 100.041 C 119.872 98.207,102.204 63.841,102.011 61.908 C 101.747 59.258,102.920 57.883,107.331 55.680 C 112.349 53.173,111.852 52.865,126.229 67.414 C 132.739 74.002,138.065 79.213,138.065 78.995 C 138.065 78.777,136.758 71.439,135.161 62.689 C 133.565 53.938,132.258 46.410,132.258 45.960 C 132.258 41.225,141.503 36.822,144.695 40.036 M228.543 41.048 C 228.187 42.026,225.856 52.737,225.973 52.855 C 226.440 53.321,237.301 55.536,239.355 55.583 C 246.071 55.737,248.486 46.893,242.492 44.090 C 239.732 42.799,228.775 40.410,228.543 41.048 M292.511 55.615 C 296.443 57.622,298.061 59.481,298.063 61.996 C 298.065 64.599,288.826 103.945,287.867 105.419 C 285.918 108.412,280.536 107.817,278.928 104.430 C 278.211 102.918,278.221 102.782,279.400 97.773 C 280.393 93.558,280.403 93.437,279.806 92.999 C 274.289 88.953,265.987 84.112,265.293 84.536 C 264.877 84.791,263.045 86.140,261.224 87.534 C 257.420 90.444,256.346 90.637,253.601 88.905 C 250.764 87.113,250.349 84.043,252.596 81.483 C 253.513 80.439,287.073 55.450,288.065 55.074 C 289.179 54.650,291.072 54.881,292.511 55.615 M279.875 72.632 C 273.441 77.758,272.249 78.835,272.620 79.187 C 273.545 80.064,282.334 85.516,282.521 85.329 C 282.708 85.142,287.729 66.674,287.625 66.556 C 287.597 66.525,284.110 69.259,279.875 72.632 M95.723 77.259 C 104.922 79.427,113.737 88.250,116.162 97.713 C 120.176 113.383,103.412 130.653,88.065 126.658 C 79.856 124.521,71.005 116.758,67.967 109.032 C 61.564 92.749,78.619 73.226,95.723 77.259 M323.639 82.060 C 325.261 82.758,341.752 101.957,343.013 104.615 C 344.774 108.325,340.447 112.170,336.946 110.006 C 336.377 109.655,332.952 105.808,329.334 101.458 C 325.716 97.108,322.674 93.548,322.574 93.548 C 321.673 93.548,314.214 100.459,314.612 100.925 C 326.777 115.176,327.579 116.593,324.961 119.211 C 322.070 122.102,320.726 121.337,313.460 112.664 L 307.720 105.812 301.600 110.920 C 293.364 117.794,290.905 118.311,288.223 113.734 C 285.957 109.868,286.115 109.675,303.387 95.236 C 320.317 81.082,320.736 80.810,323.639 82.060 M85.588 87.239 C 78.382 89.492,74.461 98.332,77.708 105.007 C 80.675 111.106,89.186 117.097,94.885 117.097 C 100.876 117.097,107.097 110.744,107.097 104.626 C 107.097 94.854,94.305 84.513,85.588 87.239 M217.906 110.253 C 222.318 126.893,230.890 128.729,244.219 115.890 L 247.648 112.587 247.831 117.342 C 248.574 136.666,260.009 142.034,277.503 131.270 C 278.380 130.730,279.046 130.405,278.984 130.547 C 278.922 130.690,278.150 132.113,277.268 133.710 C 271.308 144.505,270.291 152.195,274.352 155.760 C 277.671 158.675,283.847 159.400,289.884 157.583 C 291.838 156.995,291.837 156.993,290.707 159.242 C 286.857 166.901,285.855 176.646,288.598 179.748 C 291.006 182.471,298.346 185.327,307.518 187.109 L 309.390 187.472 307.518 188.599 C 293.278 197.163,290.584 209.239,300.641 219.421 L 303.424 222.238 301.631 222.600 C 290.435 224.857,285.376 236.979,291.985 245.711 C 293.377 247.549,293.485 247.796,292.829 247.631 C 277.386 243.755,266.581 255.349,272.139 269.831 C 272.277 270.192,271.591 270.012,269.632 269.173 C 259.918 265.012,252.448 266.190,248.023 272.581 C 245.967 275.550,245.279 277.628,243.982 284.785 C 243.858 285.467,243.545 285.252,240.688 282.527 C 229.382 271.743,219.884 274.032,217.014 288.231 C 216.479 290.878,216.462 290.875,214.370 287.747 C 205.146 273.956,195.012 274.885,184.660 290.472 L 182.097 294.332 181.866 291.763 C 179.786 268.658,169.178 264.948,148.069 279.942 C 147.490 280.353,147.486 280.312,147.938 278.813 C 149.298 274.310,149.686 268.380,148.852 264.843 C 146.656 255.526,138.475 254.688,125.912 262.493 L 123.275 264.131 123.734 262.630 C 125.698 256.200,126.236 247.540,124.932 243.383 C 122.976 237.154,117.107 235.645,94.830 235.645 L 81.756 235.645 85.475 233.586 C 98.966 226.114,108.533 218.276,110.635 212.974 C 112.501 208.265,107.445 200.541,99.408 195.823 L 96.414 194.066 99.901 193.199 C 116.263 189.133,118.128 181.515,105.901 168.689 L 104.498 167.218 110.233 167.238 C 126.480 167.295,128.966 161.864,121.337 142.979 L 120.650 141.280 121.857 141.894 C 131.647 146.876,141.613 145.875,145.327 139.537 C 147.679 135.524,148.182 123.070,146.239 116.935 C 146.127 116.581,147.460 117.789,149.202 119.621 C 164.531 135.740,177.464 131.125,182.494 107.742 C 182.632 107.097,182.779 107.355,183.228 109.032 C 188.721 129.576,206.801 126.101,215.958 102.742 C 216.143 102.270,216.332 102.789,216.661 104.677 C 216.909 106.097,217.470 108.606,217.906 110.253 M62.286 107.187 C 65.065 109.060,64.937 111.012,61.595 117.759 C 59.603 121.779,59.094 123.068,59.417 123.277 C 59.649 123.428,66.503 126.918,74.649 131.034 C 82.795 135.150,89.853 138.848,90.333 139.252 C 92.951 141.455,92.223 146.232,88.994 148.047 C 86.687 149.344,86.620 149.318,69.835 140.806 C 61.264 136.460,54.166 132.903,54.063 132.903 C 53.960 132.903,52.843 134.972,51.581 137.500 C 50.319 140.028,48.932 142.569,48.498 143.146 C 45.582 147.020,39.803 144.891,40.429 140.173 C 40.608 138.818,54.552 110.782,56.051 108.763 C 57.766 106.451,60.259 105.821,62.286 107.187 M346.875 111.570 C 348.322 112.524,348.879 113.576,355.882 128.573 C 364.140 146.259,364.209 146.486,361.967 148.728 C 358.622 152.073,355.696 150.167,352.128 142.318 C 350.904 139.624,349.864 137.419,349.819 137.419 C 349.773 137.419,342.718 140.716,334.142 144.744 C 316.785 152.898,316.331 153.046,313.944 151.344 C 311.080 149.301,310.767 144.699,313.354 142.665 C 313.786 142.324,321.083 138.804,329.570 134.840 C 338.056 130.877,345.046 127.601,345.102 127.560 C 345.157 127.519,344.105 125.104,342.763 122.194 C 339.719 115.595,339.557 114.238,341.575 112.220 C 343.051 110.744,345.219 110.478,346.875 111.570 M82.503 152.579 C 84.770 153.961,85.483 156.884,84.189 159.495 C 83.146 161.600,82.437 161.919,77.397 162.550 C 74.915 162.861,72.762 163.249,72.613 163.413 C 72.262 163.796,68.698 179.720,68.892 180.035 C 68.973 180.165,70.730 181.336,72.796 182.636 C 76.974 185.266,77.739 186.160,77.741 188.417 C 77.744 192.554,74.146 194.955,70.484 193.259 C 69.275 192.699,36.382 171.094,34.421 169.571 C 31.174 167.051,33.267 158.179,37.356 157.129 C 39.250 156.642,77.032 151.998,79.355 151.966 C 80.917 151.945,81.720 152.101,82.503 152.579 M360.955 160.611 C 373.637 165.429,374.400 187.715,362.013 191.500 C 357.096 193.002,353.476 191.655,347.631 186.149 C 344.722 183.409,343.560 182.523,342.500 182.239 C 338.964 181.290,338.345 180.943,337.716 179.557 C 336.139 176.085,338.114 173.193,342.088 173.157 C 344.592 173.134,346.636 174.243,350.483 177.709 C 357.425 183.963,363.084 183.277,363.054 176.185 C 363.036 171.993,361.857 170.522,357.328 169.042 C 354.618 168.157,353.344 167.121,352.890 165.433 C 351.734 161.142,355.860 158.675,360.955 160.611 M54.194 164.703 C 49.847 165.118,45.936 165.499,45.503 165.551 C 44.827 165.632,59.355 174.885,61.375 175.660 C 61.727 175.796,62.098 174.626,63.036 170.417 C 63.700 167.438,64.314 164.746,64.401 164.435 C 64.602 163.721,64.445 163.725,54.194 164.703 M330.222 175.050 C 332.886 176.315,333.929 180.237,332.252 182.685 C 329.840 186.204,324.582 185.893,322.873 182.129 C 320.723 177.396,325.490 172.805,330.222 175.050 M311.293 266.020 C 312.741 267.238,312.837 267.617,314.043 276.892 C 314.640 281.481,315.213 285.320,315.316 285.423 C 315.419 285.526,321.463 286.230,328.748 286.986 C 343.131 288.479,343.340 288.527,344.757 290.630 C 346.141 292.683,345.442 295.611,343.072 297.692 C 341.545 299.033,340.638 299.020,326.817 297.461 L 316.054 296.246 316.239 297.881 C 316.341 298.780,316.523 300.639,316.643 302.011 L 316.862 304.505 321.494 308.277 C 326.676 312.496,327.675 313.844,327.265 316.059 C 326.552 319.905,322.566 322.121,319.450 320.403 C 316.906 319.001,287.716 294.762,287.088 293.531 C 285.404 290.229,288.171 285.806,291.921 285.806 C 293.837 285.806,294.728 286.383,301.774 292.182 C 304.790 294.665,307.302 296.582,307.355 296.443 C 307.433 296.241,304.339 274.796,303.709 271.166 C 302.974 266.938,308.184 263.403,311.293 266.020 M96.613 272.544 C 99.377 273.818,101.373 276.540,101.352 279.008 C 101.342 280.108,93.134 311.807,92.088 314.780 C 91.846 315.469,92.876 314.548,103.028 305.000 C 108.310 300.032,113.165 295.642,113.816 295.244 C 117.715 292.859,123.051 297.679,121.089 301.813 C 120.354 303.363,92.436 329.561,90.279 330.726 C 87.226 332.374,84.277 331.222,81.881 327.443 C 80.464 325.208,79.960 327.816,87.390 298.951 C 89.705 289.956,89.876 289.083,89.229 289.596 C 88.836 289.907,84.282 294.139,79.109 299.001 C 73.936 303.863,69.298 308.108,68.803 308.435 C 65.066 310.899,59.531 305.868,61.474 301.774 C 61.896 300.883,73.700 289.562,88.543 275.811 C 92.629 272.026,94.151 271.410,96.613 272.544 M60.806 280.679 C 65.954 281.975,67.916 288.808,64.205 292.519 C 59.467 297.258,51.917 294.018,51.944 287.258 C 51.962 283.017,56.553 279.608,60.806 280.679 M57.422 283.095 C 53.548 284.774,52.684 288.850,55.619 291.593 C 56.857 292.750,59.690 292.881,61.442 291.863 C 67.063 288.598,63.359 280.520,57.422 283.095 M61.955 285.081 C 63.908 288.155,62.645 291.093,59.984 289.669 C 59.415 289.364,59.277 289.462,58.857 290.467 C 57.835 292.914,56.521 291.715,57.462 289.194 C 58.273 287.022,58.241 286.935,56.927 287.747 C 55.689 288.512,54.838 288.415,54.840 287.510 C 54.841 286.936,59.714 283.575,60.572 283.557 C 60.797 283.552,61.420 284.238,61.955 285.081 M59.838 285.929 C 59.226 286.376,59.819 288.065,60.588 288.065 C 61.325 288.065,61.565 287.294,61.104 286.404 C 60.550 285.333,60.618 285.358,59.838 285.929 M277.097 299.468 C 278.159 299.852,311.227 322.825,312.853 324.310 C 315.944 327.131,314.541 332.016,310.289 333.236 C 308.673 333.699,307.608 333.247,303.569 330.381 C 301.356 328.810,299.742 327.868,299.537 328.027 C 299.348 328.172,296.257 330.354,292.667 332.876 C 284.835 338.379,285.565 337.212,286.929 342.052 C 288.294 346.894,288.348 348.115,287.265 349.536 C 284.644 352.972,280.520 352.922,278.622 349.430 C 278.078 348.431,275.938 340.744,272.429 327.187 C 266.389 303.852,266.553 305.021,269.020 302.792 C 272.408 299.731,274.939 298.689,277.097 299.468 M140.698 310.105 C 155.862 318.425,156.580 319.021,155.303 322.214 C 153.534 326.635,152.116 326.396,139.693 319.578 C 134.301 316.619,129.857 314.233,129.817 314.276 C 129.778 314.319,128.661 316.315,127.336 318.710 L 124.927 323.065 127.867 324.701 C 129.484 325.601,133.347 327.732,136.452 329.436 C 144.177 333.675,145.212 335.013,143.239 338.205 C 141.323 341.305,140.297 341.084,129.740 335.297 C 125.073 332.738,121.151 330.645,121.025 330.645 C 120.772 330.645,115.366 340.323,115.538 340.467 C 115.597 340.516,120.073 342.976,125.484 345.934 C 136.339 351.869,137.419 352.678,137.419 354.877 C 137.419 358.698,134.031 360.427,130.275 358.524 C 124.288 355.490,106.104 345.251,105.248 344.431 C 103.963 343.201,103.427 341.671,103.706 340.021 C 103.917 338.775,119.868 309.252,122.132 305.919 C 124.982 301.723,125.729 301.891,140.698 310.105 M262.641 310.979 C 265.177 311.683,266.378 314.446,265.191 316.844 C 264.253 318.739,263.597 319.139,257.628 321.460 C 254.763 322.574,252.446 323.615,252.478 323.774 C 252.510 323.932,255.262 331.168,258.593 339.854 C 265.236 357.176,265.411 357.838,263.909 359.947 C 262.257 362.266,258.508 363.079,256.314 361.593 C 254.785 360.558,254.823 360.644,248.060 342.910 C 244.847 334.487,242.175 327.552,242.123 327.499 C 242.070 327.446,239.720 328.293,236.900 329.381 C 228.964 332.444,225.490 331.739,225.485 327.064 C 225.482 323.959,225.804 323.777,242.937 317.213 C 261.461 310.116,260.559 310.401,262.641 310.979 M277.742 311.398 C 277.742 311.669,283.241 329.801,283.359 329.919 C 283.544 330.103,293.226 323.231,293.226 322.915 C 293.226 322.667,278.234 311.290,277.907 311.290 C 277.816 311.290,277.742 311.339,277.742 311.398 M180.416 323.285 C 183.694 324.926,183.651 325.880,179.511 343.218 C 174.967 362.243,174.301 363.830,169.547 366.945 C 164.411 370.310,153.804 368.841,148.443 364.021 C 141.907 358.145,144.174 344.789,151.427 346.443 C 154.545 347.154,155.474 348.982,154.875 353.220 C 154.180 358.127,156.954 361.112,161.136 359.957 C 164.350 359.069,164.781 357.993,169.026 340.228 C 172.612 325.221,173.000 324.039,174.619 323.169 C 176.434 322.194,178.310 322.232,180.416 323.285 " stroke="none" fill="#FFDE00" fill-rule="evenodd"></path></g></svg>